NotoSerifHebrew-Regular.ufo
<glyph name="etnahtaleft-hb" format="2">
  <unicode hex="0591"/>
  <note>
uni0591
</note>
  <anchor x="137" y="0" name="_bottomleft"/>
  <outline>
    <contour>
      <point x="114" y="-78" type="line"/>
      <point x="114" y="-125" type="line"/>
      <point x="84" y="-131"/>
      <point x="64" y="-146"/>
      <point x="53" y="-169" type="curve" smooth="yes"/>
      <point x="43" y="-190"/>
      <point x="39" y="-208"/>
      <point x="39" y="-235" type="curve" smooth="yes"/>
      <point x="39" y="-251"/>
      <point x="40" y="-265"/>
      <point x="42" y="-279" type="curve"/>
      <point x="88" y="-276" type="line"/>
      <point x="86" y="-260"/>
      <point x="86" y="-247"/>
      <point x="86" y="-235" type="curve" smooth="yes"/>
      <point x="86" y="-190"/>
      <point x="103" y="-168"/>
      <point x="137" y="-168" type="curve" smooth="yes"/>
      <point x="170" y="-168"/>
      <point x="190" y="-191"/>
      <point x="190" y="-237" type="curve" smooth="yes"/>
      <point x="190" y="-251"/>
      <point x="189" y="-262"/>
      <point x="187" y="-279" type="curve"/>
      <point x="234" y="-276" type="line"/>
      <point x="235" y="-261"/>
      <point x="236" y="-246"/>
      <point x="236" y="-230" type="curve" smooth="yes"/>
      <point x="236" y="-206"/>
      <point x="234" y="-190"/>
      <point x="223" y="-168" type="curve" smooth="yes"/>
      <point x="212" y="-147"/>
      <point x="192" y="-131"/>
      <point x="162" y="-125" type="curve"/>
      <point x="162" y="-75" type="line"/>
    </contour>
  </outline>
</glyph>
<glyph name="segolta-hb" format="2">
  <unicode hex="0592"/>
  <note>
uni0592
</note>
  <anchor x="206" y="536" name="_topleft"/>
  <outline>
    <contour>
      <point x="144" y="767" type="curve" smooth="yes"/>
      <point x="167" y="767"/>
      <point x="182" y="781"/>
      <point x="182" y="809" type="curve" smooth="yes"/>
      <point x="182" y="838"/>
      <point x="167" y="852"/>
      <point x="144" y="852" type="curve" smooth="yes"/>
      <point x="121" y="852"/>
      <point x="106" y="840"/>
      <point x="106" y="809" type="curve" smooth="yes"/>
      <point x="106" y="781"/>
      <point x="121" y="767"/>
    </contour>
    <contour>
      <point x="75" y="646" type="curve" smooth="yes"/>
      <point x="98" y="646"/>
      <point x="113" y="660"/>
      <point x="113" y="688" type="curve" smooth="yes"/>
      <point x="113" y="718"/>
      <point x="98" y="731"/>
      <point x="75" y="731" type="curve" smooth="yes"/>
      <point x="52" y="731"/>
      <point x="38" y="719"/>
      <point x="38" y="688" type="curve" smooth="yes"/>
      <point x="38" y="660"/>
      <point x="52" y="646"/>
    </contour>
    <contour>
      <point x="213" y="646" type="curve" smooth="yes"/>
      <point x="235" y="646"/>
      <point x="251" y="660"/>
      <point x="251" y="688" type="curve" smooth="yes"/>
      <point x="251" y="718"/>
      <point x="235" y="731"/>
      <point x="213" y="731" type="curve" smooth="yes"/>
      <point x="190" y="731"/>
      <point x="176" y="719"/>
      <point x="176" y="688" type="curve" smooth="yes"/>
      <point x="176" y="660"/>
      <point x="190" y="646"/>
    </contour>
  </outline>
</glyph>
<glyph name="shalshelet-hb" format="2">
  <unicode hex="0593"/>
  <note>
uni0593
</note>
  <anchor x="122" y="536" name="_top"/>
  <outline>
    <contour>
      <point x="41" y="642" type="line"/>
      <point x="106" y="642" type="line"/>
      <point x="203" y="689" type="line"/>
      <point x="117" y="737" type="line"/>
      <point x="203" y="784" type="line"/>
      <point x="117" y="832" type="line"/>
      <point x="203" y="879" type="line"/>
      <point x="127" y="879" type="line"/>
      <point x="41" y="832" type="line"/>
      <point x="127" y="784" type="line"/>
      <point x="41" y="737" type="line"/>
      <point x="127" y="689" type="line"/>
    </contour>
  </outline>
</glyph>
<glyph name="zaqefqatan-hb" format="2">
  <unicode hex="0594"/>
  <note>
uni0594
</note>
  <anchor x="84" y="536" name="_top"/>
  <outline>
    <contour>
      <point x="85" y="767" type="curve" smooth="yes"/>
      <point x="108" y="767"/>
      <point x="123" y="781"/>
      <point x="123" y="810" type="curve" smooth="yes"/>
      <point x="123" y="838"/>
      <point x="108" y="852"/>
      <point x="85" y="852" type="curve" smooth="yes"/>
      <point x="62" y="852"/>
      <point x="48" y="838"/>
      <point x="48" y="810" type="curve"/>
      <point x="48" y="780"/>
      <point x="62" y="767"/>
    </contour>
    <contour>
      <point x="84" y="646" type="curve" smooth="yes"/>
      <point x="107" y="646"/>
      <point x="122" y="660"/>
      <point x="122" y="689" type="curve" smooth="yes"/>
      <point x="122" y="718"/>
      <point x="107" y="731"/>
      <point x="84" y="731" type="curve" smooth="yes"/>
      <point x="61" y="731"/>
      <point x="46" y="718"/>
      <point x="46" y="689" type="curve"/>
      <point x="46" y="659"/>
      <point x="61" y="646"/>
    </contour>
  </outline>
</glyph>
<glyph name="zaqefgadol-hb" format="2">
  <unicode hex="0595"/>
  <note>
uni0595
</note>
  <anchor x="129" y="536" name="_top"/>
  <outline>
    <contour>
      <point x="40" y="646" type="line"/>
      <point x="93" y="649" type="line"/>
      <point x="93" y="852" type="line"/>
      <point x="40" y="849" type="line"/>
    </contour>
    <contour>
      <point x="180" y="646" type="curve" smooth="yes"/>
      <point x="202" y="646"/>
      <point x="218" y="660"/>
      <point x="218" y="689" type="curve" smooth="yes"/>
      <point x="218" y="718"/>
      <point x="202" y="731"/>
      <point x="180" y="731" type="curve" smooth="yes"/>
      <point x="157" y="731"/>
      <point x="141" y="718"/>
      <point x="141" y="689" type="curve" smooth="yes"/>
      <point x="141" y="659"/>
      <point x="157" y="646"/>
    </contour>
    <contour>
      <point x="181" y="767" type="curve" smooth="yes"/>
      <point x="204" y="767"/>
      <point x="219" y="781"/>
      <point x="219" y="810" type="curve" smooth="yes"/>
      <point x="219" y="838"/>
      <point x="204" y="852"/>
      <point x="181" y="852" type="curve" smooth="yes"/>
      <point x="158" y="852"/>
      <point x="144" y="838"/>
      <point x="144" y="810" type="curve" smooth="yes"/>
      <point x="144" y="780"/>
      <point x="158" y="767"/>
    </contour>
  </outline>
</glyph>
<glyph name="tipehaleft-hb" format="2">
  <unicode hex="0596"/>
  <note>
uni0596
</note>
  <anchor x="75" y="0" name="_bottomleft"/>
  <outline>
    <contour>
      <point x="162" y="-238" type="line"/>
      <point x="134" y="-231"/>
      <point x="115" y="-219"/>
      <point x="107" y="-204" type="curve" smooth="yes"/>
      <point x="94" y="-180"/>
      <point x="96" y="-124"/>
      <point x="99" y="-84" type="curve"/>
      <point x="50" y="-87" type="line"/>
      <point x="45" y="-155"/>
      <point x="45" y="-204"/>
      <point x="66" y="-234" type="curve" smooth="yes"/>
      <point x="84" y="-259"/>
      <point x="115" y="-280"/>
      <point x="158" y="-290" type="curve"/>
    </contour>
  </outline>
</glyph>
<glyph name="zarqa-hb" format="2">
  <unicode hex="0598"/>
  <note>
uni0598
</note>
  <anchor x="188" y="536" name="_top"/>
  <outline>
    <contour>
      <point x="89" y="642" type="curve"/>
      <point x="103" y="679" type="line"/>
      <point x="83" y="688"/>
      <point x="73" y="701"/>
      <point x="73" y="724" type="curve" smooth="yes"/>
      <point x="73" y="749"/>
      <point x="87" y="764"/>
      <point x="107" y="764" type="curve" smooth="yes"/>
      <point x="130" y="764"/>
      <point x="142" y="752"/>
      <point x="173" y="708" type="curve" smooth="yes"/>
      <point x="208" y="658"/>
      <point x="234" y="643"/>
      <point x="269" y="643" type="curve" smooth="yes"/>
      <point x="312" y="643"/>
      <point x="344" y="673"/>
      <point x="344" y="720" type="curve" smooth="yes"/>
      <point x="344" y="760"/>
      <point x="325" y="787"/>
      <point x="287" y="802" type="curve"/>
      <point x="273" y="764" type="line"/>
      <point x="293" y="756"/>
      <point x="303" y="742"/>
      <point x="303" y="720" type="curve" smooth="yes"/>
      <point x="303" y="694"/>
      <point x="289" y="680"/>
      <point x="269" y="680" type="curve" smooth="yes"/>
      <point x="247" y="680"/>
      <point x="231" y="695"/>
      <point x="203" y="734" type="curve" smooth="yes"/>
      <point x="166" y="786"/>
      <point x="142" y="801"/>
      <point x="109" y="801" type="curve" smooth="yes"/>
      <point x="64" y="801"/>
      <point x="32" y="769"/>
      <point x="32" y="724" type="curve" smooth="yes"/>
      <point x="32" y="682"/>
      <point x="51" y="654"/>
    </contour>
  </outline>
</glyph>
<glyph name="pashta-hb" format="2">
  <unicode hex="0599"/>
  <note>
uni0599
</note>
  <anchor x="200" y="536" name="_topleft"/>
  <outline>
    <contour>
      <point x="88" y="811" type="line"/>
      <point x="116" y="804"/>
      <point x="135" y="792"/>
      <point x="143" y="777" type="curve" smooth="yes"/>
      <point x="156" y="753"/>
      <point x="154" y="697"/>
      <point x="151" y="657" type="curve"/>
      <point x="200" y="660" type="line"/>
      <point x="205" y="728"/>
      <point x="205" y="777"/>
      <point x="184" y="807" type="curve" smooth="yes"/>
      <point x="166" y="832"/>
      <point x="135" y="853"/>
      <point x="92" y="863" type="curve"/>
    </contour>
  </outline>
</glyph>
<glyph name="tevirleft-hb" format="2">
  <unicode hex="059B"/>
  <note>
uni059B
</note>
  <anchor x="193" y="0" name="_bottomleft"/>
  <outline>
    <contour>
      <point x="86" y="-161" type="curve" smooth="yes"/>
      <point x="107" y="-161"/>
      <point x="123" y="-145"/>
      <point x="123" y="-124" type="curve" smooth="yes"/>
      <point x="123" y="-103"/>
      <point x="107" y="-87"/>
      <point x="86" y="-87" type="curve" smooth="yes"/>
      <point x="66" y="-87"/>
      <point x="50" y="-104"/>
      <point x="50" y="-124" type="curve" smooth="yes"/>
      <point x="50" y="-145"/>
      <point x="66" y="-161"/>
    </contour>
    <contour>
      <point x="109" y="-238" type="curve"/>
      <point x="106" y="-290" type="line"/>
      <point x="149" y="-280"/>
      <point x="184" y="-259"/>
      <point x="202" y="-234" type="curve" smooth="yes"/>
      <point x="223" y="-204"/>
      <point x="223" y="-155"/>
      <point x="218" y="-87" type="curve"/>
      <point x="169" y="-90" type="line"/>
      <point x="172" y="-130"/>
      <point x="174" y="-180"/>
      <point x="161" y="-204" type="curve" smooth="yes"/>
      <point x="153" y="-219"/>
      <point x="137" y="-231"/>
    </contour>
  </outline>
</glyph>
<glyph name="gereshmuqdam-hb" format="2">
  <unicode hex="059D"/>
  <note>
uni059D
</note>
  <anchor x="150" y="536" name="_top"/>
  <outline>
    <contour>
      <point x="164" y="811" type="curve"/>
      <point x="160" y="863" type="line"/>
      <point x="117" y="853"/>
      <point x="86" y="832"/>
      <point x="68" y="807" type="curve" smooth="yes"/>
      <point x="47" y="777"/>
      <point x="47" y="728"/>
      <point x="52" y="660" type="curve"/>
      <point x="101" y="657" type="line"/>
      <point x="98" y="697"/>
      <point x="96" y="753"/>
      <point x="109" y="777" type="curve" smooth="yes"/>
      <point x="117" y="792"/>
      <point x="136" y="804"/>
    </contour>
  </outline>
</glyph>
<glyph name="gershayimaccent-hb" format="2">
  <unicode hex="059E"/>
  <note>
uni059E
</note>
  <anchor x="151" y="536" name="_top"/>
  <outline>
    <contour>
      <point x="164" y="811" type="curve"/>
      <point x="160" y="863" type="line"/>
      <point x="117" y="853"/>
      <point x="86" y="832"/>
      <point x="68" y="807" type="curve" smooth="yes"/>
      <point x="47" y="777"/>
      <point x="47" y="728"/>
      <point x="52" y="660" type="curve"/>
      <point x="101" y="657" type="line"/>
      <point x="98" y="697"/>
      <point x="96" y="753"/>
      <point x="109" y="777" type="curve" smooth="yes"/>
      <point x="117" y="792"/>
      <point x="136" y="804"/>
    </contour>
    <contour>
      <point x="296" y="811" type="curve"/>
      <point x="292" y="863" type="line"/>
      <point x="249" y="853"/>
      <point x="218" y="832"/>
      <point x="200" y="807" type="curve" smooth="yes"/>
      <point x="179" y="777"/>
      <point x="179" y="728"/>
      <point x="184" y="660" type="curve"/>
      <point x="233" y="657" type="line"/>
      <point x="230" y="697"/>
      <point x="228" y="753"/>
      <point x="241" y="777" type="curve" smooth="yes"/>
      <point x="249" y="792"/>
      <point x="268" y="804"/>
    </contour>
  </outline>
</glyph>
<glyph name="qarneypara-hb" format="2">
  <unicode hex="059F"/>
  <note>
uni059F
</note>
  <anchor x="277" y="536" name="_top"/>
  <outline>
    <contour>
      <point x="326" y="660" type="line"/>
      <point x="364" y="698" type="line"/>
      <point x="378" y="691"/>
      <point x="393" y="688"/>
      <point x="410" y="688" type="curve" smooth="yes"/>
      <point x="463" y="688"/>
      <point x="504" y="729"/>
      <point x="504" y="781" type="curve" smooth="yes"/>
      <point x="504" y="834"/>
      <point x="462" y="874"/>
      <point x="410" y="874" type="curve" smooth="yes"/>
      <point x="358" y="874"/>
      <point x="316" y="833"/>
      <point x="316" y="781" type="curve" smooth="yes"/>
      <point x="316" y="764"/>
      <point x="321" y="748"/>
      <point x="329" y="735" type="curve"/>
      <point x="290" y="696" type="line"/>
    </contour>
    <contour>
      <point x="228" y="660" type="line"/>
      <point x="264" y="696" type="line"/>
      <point x="225" y="735" type="line"/>
      <point x="233" y="748"/>
      <point x="238" y="764"/>
      <point x="238" y="781" type="curve" smooth="yes"/>
      <point x="238" y="833"/>
      <point x="196" y="874"/>
      <point x="144" y="874" type="curve" smooth="yes"/>
      <point x="92" y="874"/>
      <point x="50" y="833"/>
      <point x="50" y="781" type="curve" smooth="yes"/>
      <point x="50" y="729"/>
      <point x="91" y="688"/>
      <point x="144" y="688" type="curve" smooth="yes"/>
      <point x="161" y="688"/>
      <point x="176" y="691"/>
      <point x="190" y="698" type="curve"/>
    </contour>
    <contour>
      <point x="145" y="734" type="curve" smooth="yes"/>
      <point x="119" y="734"/>
      <point x="97" y="756"/>
      <point x="97" y="781" type="curve" smooth="yes"/>
      <point x="97" y="806"/>
      <point x="120" y="828"/>
      <point x="145" y="828" type="curve" smooth="yes"/>
      <point x="169" y="828"/>
      <point x="191" y="807"/>
      <point x="191" y="781" type="curve" smooth="yes"/>
      <point x="191" y="755"/>
      <point x="170" y="734"/>
    </contour>
    <contour>
      <point x="409" y="734" type="curve" smooth="yes"/>
      <point x="384" y="734"/>
      <point x="363" y="755"/>
      <point x="363" y="781" type="curve" smooth="yes"/>
      <point x="363" y="807"/>
      <point x="385" y="828"/>
      <point x="409" y="828" type="curve" smooth="yes"/>
      <point x="434" y="828"/>
      <point x="457" y="806"/>
      <point x="457" y="781" type="curve" smooth="yes"/>
      <point x="457" y="756"/>
      <point x="435" y="734"/>
    </contour>
  </outline>
</glyph>
<glyph name="telishagedola-hb" format="2">
  <unicode hex="05A0"/>
  <note>
uni05A0
</note>
  <anchor x="157" y="536" name="_top"/>
  <outline>
    <contour>
      <point x="86" y="660" type="line"/>
      <point x="124" y="698" type="line"/>
      <point x="138" y="691"/>
      <point x="153" y="688"/>
      <point x="170" y="688" type="curve" smooth="yes"/>
      <point x="223" y="688"/>
      <point x="264" y="729"/>
      <point x="264" y="781" type="curve" smooth="yes"/>
      <point x="264" y="834"/>
      <point x="222" y="874"/>
      <point x="170" y="874" type="curve" smooth="yes"/>
      <point x="118" y="874"/>
      <point x="76" y="833"/>
      <point x="76" y="781" type="curve" smooth="yes"/>
      <point x="76" y="764"/>
      <point x="81" y="748"/>
      <point x="89" y="735" type="curve"/>
      <point x="50" y="696" type="line"/>
    </contour>
    <contour>
      <point x="169" y="734" type="curve" smooth="yes"/>
      <point x="144" y="734"/>
      <point x="123" y="755"/>
      <point x="123" y="781" type="curve" smooth="yes"/>
      <point x="123" y="807"/>
      <point x="145" y="828"/>
      <point x="169" y="828" type="curve" smooth="yes"/>
      <point x="194" y="828"/>
      <point x="217" y="806"/>
      <point x="217" y="781" type="curve" smooth="yes"/>
      <point x="217" y="756"/>
      <point x="195" y="734"/>
    </contour>
  </outline>
</glyph>
<glyph name="pazer-hb" format="2">
  <unicode hex="05A1"/>
  <note>
uni05A1
</note>
  <anchor x="126" y="536" name="_top"/>
  <outline>
    <contour>
      <point x="40" y="657" type="line"/>
      <point x="92" y="660" type="line"/>
      <point x="92" y="713" type="line"/>
      <point x="100" y="709"/>
      <point x="110" y="707"/>
      <point x="121" y="707" type="curve" smooth="yes"/>
      <point x="182" y="707"/>
      <point x="212" y="746"/>
      <point x="212" y="807" type="curve" smooth="yes"/>
      <point x="212" y="833" type="line"/>
      <point x="159" y="830" type="line"/>
      <point x="159" y="807" type="line" smooth="yes"/>
      <point x="159" y="768"/>
      <point x="147" y="755"/>
      <point x="115" y="755" type="curve" smooth="yes"/>
      <point x="102" y="755"/>
      <point x="97" y="757"/>
      <point x="92" y="762" type="curve"/>
      <point x="92" y="833" type="line"/>
      <point x="40" y="830" type="line"/>
    </contour>
  </outline>
</glyph>
<glyph name="munahleft-hb" format="2">
  <unicode hex="05A3"/>
  <note>
uni05A3
</note>
  <anchor x="200" y="0" name="_bottomleft"/>
  <outline>
    <contour>
      <point x="47" y="-228" type="line"/>
      <point x="200" y="-228" type="line"/>
      <point x="200" y="-81" type="line"/>
      <point x="150" y="-84" type="line"/>
      <point x="150" y="-179" type="line"/>
      <point x="50" y="-179" type="line"/>
    </contour>
  </outline>
</glyph>
<glyph name="mahapakhleft-hb" format="2">
  <unicode hex="05A4"/>
  <note>
uni05A4
</note>
  <anchor x="167" y="0" name="_bottomleft"/>
  <outline>
    <contour>
      <point x="147" y="-264" type="line"/>
      <point x="189" y="-239" type="line"/>
      <point x="117" y="-167" type="line"/>
      <point x="189" y="-95" type="line"/>
      <point x="147" y="-70" type="line"/>
      <point x="50" y="-167" type="line"/>
    </contour>
  </outline>
</glyph>
<glyph name="merkhaleft-hb" format="2">
  <unicode hex="05A5"/>
  <note>
uni05A5
</note>
  <anchor x="200" y="0" name="_bottomleft"/>
  <outline>
    <contour>
      <point x="96" y="-238" type="curve"/>
      <point x="93" y="-290" type="line"/>
      <point x="138" y="-280"/>
      <point x="172" y="-259"/>
      <point x="190" y="-234" type="curve" smooth="yes"/>
      <point x="211" y="-204"/>
      <point x="211" y="-152"/>
      <point x="206" y="-84" type="curve"/>
      <point x="157" y="-87" type="line"/>
      <point x="160" y="-127"/>
      <point x="162" y="-180"/>
      <point x="149" y="-204" type="curve" smooth="yes"/>
      <point x="141" y="-219"/>
      <point x="122" y="-231"/>
    </contour>
  </outline>
</glyph>
<glyph name="merkhakefulaleft-hb" format="2">
  <unicode hex="05A6"/>
  <note>
uni05A6
</note>
  <anchor x="251" y="0" name="_bottomleft"/>
  <outline>
    <contour>
      <point x="242" y="-235" type="curve"/>
      <point x="245" y="-287" type="line"/>
      <point x="290" y="-277"/>
      <point x="318" y="-256"/>
      <point x="336" y="-231" type="curve" smooth="yes"/>
      <point x="357" y="-201"/>
      <point x="357" y="-149"/>
      <point x="352" y="-80" type="curve"/>
      <point x="303" y="-83" type="line"/>
      <point x="306" y="-121"/>
      <point x="308" y="-177"/>
      <point x="295" y="-201" type="curve" smooth="yes"/>
      <point x="287" y="-216"/>
      <point x="268" y="-228"/>
    </contour>
    <contour>
      <point x="110" y="-235" type="curve"/>
      <point x="113" y="-287" type="line"/>
      <point x="158" y="-277"/>
      <point x="186" y="-256"/>
      <point x="204" y="-231" type="curve" smooth="yes"/>
      <point x="225" y="-201"/>
      <point x="225" y="-149"/>
      <point x="220" y="-80" type="curve"/>
      <point x="171" y="-83" type="line"/>
      <point x="174" y="-121"/>
      <point x="176" y="-177"/>
      <point x="163" y="-201" type="curve" smooth="yes"/>
      <point x="155" y="-216"/>
      <point x="136" y="-228"/>
    </contour>
  </outline>
</glyph>
<glyph name="dargaleft-hb" format="2">
  <unicode hex="05A7"/>
  <note>
uni05A7
</note>
  <anchor x="182" y="0" name="_bottomleft"/>
  <outline>
    <contour>
      <point x="64" y="-240" type="line"/>
      <point x="195" y="-216" type="line"/>
      <point x="116" y="-113" type="line"/>
      <point x="182" y="-101" type="line"/>
      <point x="182" y="-66" type="line"/>
      <point x="50" y="-90" type="line"/>
      <point x="129" y="-193" type="line"/>
      <point x="64" y="-203" type="line"/>
    </contour>
  </outline>
</glyph>
<glyph name="telishaqetana-hb" format="2">
  <unicode hex="05A9"/>
  <note>
uni05A9
</note>
  <anchor x="144" y="536" name="_topleft"/>
  <outline>
    <contour>
      <point x="228" y="660" type="line"/>
      <point x="264" y="696" type="line"/>
      <point x="225" y="735" type="line"/>
      <point x="233" y="748"/>
      <point x="238" y="764"/>
      <point x="238" y="781" type="curve" smooth="yes"/>
      <point x="238" y="833"/>
      <point x="196" y="874"/>
      <point x="144" y="874" type="curve" smooth="yes"/>
      <point x="92" y="874"/>
      <point x="50" y="833"/>
      <point x="50" y="781" type="curve" smooth="yes"/>
      <point x="50" y="729"/>
      <point x="91" y="688"/>
      <point x="144" y="688" type="curve" smooth="yes"/>
      <point x="161" y="688"/>
      <point x="176" y="691"/>
      <point x="190" y="698" type="curve"/>
    </contour>
    <contour>
      <point x="145" y="734" type="curve" smooth="yes"/>
      <point x="119" y="734"/>
      <point x="97" y="756"/>
      <point x="97" y="781" type="curve" smooth="yes"/>
      <point x="97" y="806"/>
      <point x="120" y="828"/>
      <point x="145" y="828" type="curve" smooth="yes"/>
      <point x="169" y="828"/>
      <point x="191" y="807"/>
      <point x="191" y="781" type="curve" smooth="yes"/>
      <point x="191" y="755"/>
      <point x="170" y="734"/>
    </contour>
  </outline>
</glyph>
<glyph name="yerahbenyomoleft-hb" format="2">
  <unicode hex="05AA"/>
  <note>
uni05AA
</note>
  <anchor x="138" y="0" name="_bottomleft"/>
  <outline>
    <contour>
      <point x="161" y="-286" type="line"/>
      <point x="161" y="-239" type="line"/>
      <point x="191" y="-233"/>
      <point x="211" y="-218"/>
      <point x="222" y="-195" type="curve" smooth="yes"/>
      <point x="232" y="-174"/>
      <point x="236" y="-156"/>
      <point x="236" y="-129" type="curve" smooth="yes"/>
      <point x="236" y="-113"/>
      <point x="235" y="-99"/>
      <point x="233" y="-85" type="curve"/>
      <point x="187" y="-88" type="line"/>
      <point x="189" y="-104"/>
      <point x="189" y="-117"/>
      <point x="189" y="-129" type="curve" smooth="yes"/>
      <point x="189" y="-174"/>
      <point x="172" y="-196"/>
      <point x="138" y="-196" type="curve" smooth="yes"/>
      <point x="105" y="-196"/>
      <point x="85" y="-173"/>
      <point x="85" y="-127" type="curve" smooth="yes"/>
      <point x="85" y="-113"/>
      <point x="86" y="-102"/>
      <point x="88" y="-85" type="curve"/>
      <point x="41" y="-88" type="line"/>
      <point x="40" y="-103"/>
      <point x="39" y="-118"/>
      <point x="39" y="-134" type="curve" smooth="yes"/>
      <point x="39" y="-158"/>
      <point x="41" y="-174"/>
      <point x="52" y="-196" type="curve" smooth="yes"/>
      <point x="63" y="-217"/>
      <point x="83" y="-233"/>
      <point x="113" y="-239" type="curve"/>
      <point x="113" y="-289" type="line"/>
    </contour>
  </outline>
</glyph>
<glyph name="ole-hb" format="2">
  <unicode hex="05AB"/>
  <note>
uni05AB
</note>
  <anchor x="125" y="536" name="_top"/>
  <outline>
    <contour>
      <point x="147" y="648" type="line"/>
      <point x="189" y="673" type="line"/>
      <point x="117" y="745" type="line"/>
      <point x="189" y="817" type="line"/>
      <point x="147" y="842" type="line"/>
      <point x="50" y="745" type="line"/>
    </contour>
  </outline>
</glyph>
<glyph name="iluy-hb" format="2">
  <unicode hex="05AC"/>
  <note>
uni05AC
</note>
  <anchor x="125" y="536" name="_top"/>
  <outline>
    <contour>
      <point x="47" y="660" type="line"/>
      <point x="200" y="660" type="line"/>
      <point x="200" y="807" type="line"/>
      <point x="150" y="804" type="line"/>
      <point x="150" y="709" type="line"/>
      <point x="50" y="709" type="line"/>
    </contour>
  </outline>
</glyph>
<glyph name="zinor-hb" format="2">
  <unicode hex="05AE"/>
  <note>
uni05AE
</note>
  <anchor x="188" y="536" name="_top"/>
  <outline>
    <contour>
      <point x="89" y="660" type="curve"/>
      <point x="103" y="697" type="line"/>
      <point x="83" y="706"/>
      <point x="73" y="720"/>
      <point x="73" y="742" type="curve" smooth="yes"/>
      <point x="73" y="767"/>
      <point x="87" y="782"/>
      <point x="107" y="782" type="curve" smooth="yes"/>
      <point x="130" y="782"/>
      <point x="142" y="771"/>
      <point x="173" y="727" type="curve" smooth="yes"/>
      <point x="208" y="677"/>
      <point x="234" y="661"/>
      <point x="269" y="661" type="curve" smooth="yes"/>
      <point x="312" y="661"/>
      <point x="344" y="692"/>
      <point x="344" y="738" type="curve" smooth="yes"/>
      <point x="344" y="779"/>
      <point x="325" y="806"/>
      <point x="287" y="820" type="curve"/>
      <point x="273" y="782" type="line"/>
      <point x="293" y="774"/>
      <point x="303" y="761"/>
      <point x="303" y="738" type="curve" smooth="yes"/>
      <point x="303" y="712"/>
      <point x="289" y="698"/>
      <point x="269" y="698" type="curve" smooth="yes"/>
      <point x="247" y="698"/>
      <point x="231" y="713"/>
      <point x="203" y="753" type="curve" smooth="yes"/>
      <point x="167" y="805"/>
      <point x="142" y="819"/>
      <point x="109" y="819" type="curve" smooth="yes"/>
      <point x="64" y="819"/>
      <point x="32" y="788"/>
      <point x="32" y="742" type="curve" smooth="yes"/>
      <point x="32" y="701"/>
      <point x="51" y="672"/>
    </contour>
  </outline>
</glyph>
<glyph name="masoracircle-hb" format="2">
  <unicode hex="05AF"/>
  <note>
uni05AF
</note>
  <anchor x="142" y="536" name="_top"/>
  <outline>
    <contour>
      <point x="142" y="660" type="curve" smooth="yes"/>
      <point x="194" y="660"/>
      <point x="234" y="701"/>
      <point x="234" y="752" type="curve" smooth="yes"/>
      <point x="234" y="803"/>
      <point x="193" y="844"/>
      <point x="142" y="844" type="curve" smooth="yes"/>
      <point x="91" y="844"/>
      <point x="50" y="803"/>
      <point x="50" y="752" type="curve" smooth="yes"/>
      <point x="50" y="701"/>
      <point x="90" y="660"/>
    </contour>
    <contour>
      <point x="142" y="703" type="curve" smooth="yes"/>
      <point x="115" y="703"/>
      <point x="93" y="725"/>
      <point x="93" y="752" type="curve" smooth="yes"/>
      <point x="93" y="779"/>
      <point x="116" y="801"/>
      <point x="142" y="801" type="curve" smooth="yes"/>
      <point x="168" y="801"/>
      <point x="191" y="779"/>
      <point x="191" y="752" type="curve" smooth="yes"/>
      <point x="191" y="725"/>
      <point x="169" y="703"/>
    </contour>
  </outline>
</glyph>
<glyph name="sheva-hb" format="2">
  <unicode hex="05B0"/>
  <note>
sheva
</note>
  <anchor x="86" y="0" name="_bottom"/>
  <outline>
    <contour>
      <point x="48" y="-112" type="curve"/>
      <point x="48" y="-142"/>
      <point x="62" y="-155"/>
      <point x="85" y="-155" type="curve" smooth="yes"/>
      <point x="108" y="-155"/>
      <point x="123" y="-141"/>
      <point x="123" y="-112" type="curve" smooth="yes"/>
      <point x="123" y="-84"/>
      <point x="108" y="-70"/>
      <point x="85" y="-70" type="curve" smooth="yes"/>
      <point x="62" y="-70"/>
      <point x="48" y="-84"/>
    </contour>
    <contour>
      <point x="46" y="-233" type="curve"/>
      <point x="46" y="-263"/>
      <point x="61" y="-276"/>
      <point x="84" y="-276" type="curve" smooth="yes"/>
      <point x="107" y="-276"/>
      <point x="122" y="-262"/>
      <point x="122" y="-233" type="curve" smooth="yes"/>
      <point x="122" y="-204"/>
      <point x="107" y="-191"/>
      <point x="84" y="-191" type="curve" smooth="yes"/>
      <point x="61" y="-191"/>
      <point x="46" y="-204"/>
    </contour>
  </outline>
</glyph>
<glyph name="hatafsegol-hb" format="2">
  <unicode hex="05B1"/>
  <note>
hatafsegol
</note>
  <anchor x="193" y="0" name="_bottom"/>
  <outline>
    <contour>
      <point x="317" y="-276" type="curve" smooth="yes"/>
      <point x="340" y="-276"/>
      <point x="356" y="-262"/>
      <point x="356" y="-233" type="curve" smooth="yes"/>
      <point x="356" y="-204"/>
      <point x="340" y="-191"/>
      <point x="317" y="-191" type="curve" smooth="yes"/>
      <point x="295" y="-191"/>
      <point x="279" y="-204"/>
      <point x="279" y="-233" type="curve"/>
      <point x="279" y="-263"/>
      <point x="295" y="-276"/>
    </contour>
    <contour>
      <point x="138" y="-276" type="curve" smooth="yes"/>
      <point x="160" y="-276"/>
      <point x="176" y="-262"/>
      <point x="176" y="-233" type="curve" smooth="yes"/>
      <point x="176" y="-204"/>
      <point x="160" y="-191"/>
      <point x="138" y="-191" type="curve" smooth="yes"/>
      <point x="115" y="-191"/>
      <point x="99" y="-204"/>
      <point x="99" y="-233" type="curve"/>
      <point x="99" y="-263"/>
      <point x="115" y="-276"/>
    </contour>
    <contour>
      <point x="69" y="-155" type="curve" smooth="yes"/>
      <point x="91" y="-155"/>
      <point x="107" y="-141"/>
      <point x="107" y="-112" type="curve" smooth="yes"/>
      <point x="107" y="-84"/>
      <point x="91" y="-70"/>
      <point x="69" y="-70" type="curve" smooth="yes"/>
      <point x="46" y="-70"/>
      <point x="31" y="-84"/>
      <point x="31" y="-112" type="curve"/>
      <point x="31" y="-142"/>
      <point x="46" y="-155"/>
    </contour>
    <contour>
      <point x="206" y="-155" type="curve" smooth="yes"/>
      <point x="229" y="-155"/>
      <point x="245" y="-141"/>
      <point x="245" y="-112" type="curve" smooth="yes"/>
      <point x="245" y="-84"/>
      <point x="229" y="-70"/>
      <point x="206" y="-70" type="curve" smooth="yes"/>
      <point x="184" y="-70"/>
      <point x="169" y="-84"/>
      <point x="169" y="-112" type="curve"/>
      <point x="169" y="-142"/>
      <point x="184" y="-155"/>
    </contour>
    <contour>
      <point x="316" y="-155" type="curve" smooth="yes"/>
      <point x="339" y="-155"/>
      <point x="355" y="-141"/>
      <point x="355" y="-112" type="curve" smooth="yes"/>
      <point x="355" y="-84"/>
      <point x="339" y="-70"/>
      <point x="316" y="-70" type="curve" smooth="yes"/>
      <point x="294" y="-70"/>
      <point x="279" y="-84"/>
      <point x="279" y="-112" type="curve"/>
      <point x="279" y="-142"/>
      <point x="294" y="-155"/>
    </contour>
  </outline>
</glyph>
<glyph name="hatafqamats-hb" format="2">
  <unicode hex="05B3"/>
  <note>
hatafqamats
</note>
  <anchor x="189" y="0" name="_bottom"/>
  <outline>
    <contour>
      <point x="106" y="-260" type="line"/>
      <point x="160" y="-257" type="line"/>
      <point x="154" y="-139" type="line"/>
      <point x="210" y="-139" type="line"/>
      <point x="213" y="-86" type="line"/>
      <point x="55" y="-86" type="line"/>
      <point x="52" y="-139" type="line"/>
      <point x="112" y="-139" type="line"/>
    </contour>
    <contour>
      <point x="287" y="-276" type="curve" smooth="yes"/>
      <point x="309" y="-276"/>
      <point x="325" y="-262"/>
      <point x="325" y="-233" type="curve" smooth="yes"/>
      <point x="325" y="-204"/>
      <point x="309" y="-191"/>
      <point x="287" y="-191" type="curve" smooth="yes"/>
      <point x="264" y="-191"/>
      <point x="248" y="-204"/>
      <point x="248" y="-233" type="curve" smooth="yes"/>
      <point x="248" y="-263"/>
      <point x="264" y="-276"/>
    </contour>
    <contour>
      <point x="288" y="-155" type="curve" smooth="yes"/>
      <point x="310" y="-155"/>
      <point x="326" y="-141"/>
      <point x="326" y="-112" type="curve" smooth="yes"/>
      <point x="326" y="-84"/>
      <point x="310" y="-70"/>
      <point x="288" y="-70" type="curve" smooth="yes"/>
      <point x="265" y="-70"/>
      <point x="250" y="-84"/>
      <point x="250" y="-112" type="curve" smooth="yes"/>
      <point x="250" y="-142"/>
      <point x="265" y="-155"/>
    </contour>
  </outline>
</glyph>
<glyph name="hiriq-hb" format="2">
  <unicode hex="05B4"/>
  <note>
hiriq
</note>
  <anchor x="84" y="0" name="_bottom"/>
  <outline>
    <contour>
      <point x="83" y="-155" type="curve" smooth="yes"/>
      <point x="106" y="-155"/>
      <point x="121" y="-141"/>
      <point x="121" y="-112" type="curve" smooth="yes"/>
      <point x="121" y="-84"/>
      <point x="106" y="-70"/>
      <point x="83" y="-70" type="curve" smooth="yes"/>
      <point x="60" y="-70"/>
      <point x="46" y="-84"/>
      <point x="46" y="-112" type="curve"/>
      <point x="46" y="-142"/>
      <point x="60" y="-155"/>
    </contour>
  </outline>
</glyph>
<glyph name="tsere-hb" format="2">
  <unicode hex="05B5"/>
  <note>
tsere
</note>
  <anchor x="145" y="0" name="_bottom"/>
  <outline>
    <contour>
      <point x="205" y="-155" type="curve" smooth="yes"/>
      <point x="228" y="-155"/>
      <point x="243" y="-141"/>
      <point x="243" y="-112" type="curve" smooth="yes"/>
      <point x="243" y="-84"/>
      <point x="228" y="-70"/>
      <point x="205" y="-70" type="curve" smooth="yes"/>
      <point x="182" y="-70"/>
      <point x="168" y="-84"/>
      <point x="168" y="-112" type="curve"/>
      <point x="168" y="-142"/>
      <point x="182" y="-155"/>
    </contour>
    <contour>
      <point x="83" y="-155" type="curve" smooth="yes"/>
      <point x="106" y="-155"/>
      <point x="121" y="-141"/>
      <point x="121" y="-112" type="curve" smooth="yes"/>
      <point x="121" y="-84"/>
      <point x="106" y="-70"/>
      <point x="83" y="-70" type="curve" smooth="yes"/>
      <point x="60" y="-70"/>
      <point x="46" y="-84"/>
      <point x="46" y="-112" type="curve"/>
      <point x="46" y="-142"/>
      <point x="60" y="-155"/>
    </contour>
  </outline>
</glyph>
<glyph name="segol-hb" format="2">
  <unicode hex="05B6"/>
  <note>
segol
</note>
  <anchor x="145" y="0" name="_bottom"/>
  <outline>
    <contour>
      <point x="213" y="-155" type="curve" smooth="yes"/>
      <point x="235" y="-155"/>
      <point x="251" y="-141"/>
      <point x="251" y="-112" type="curve" smooth="yes"/>
      <point x="251" y="-84"/>
      <point x="235" y="-70"/>
      <point x="213" y="-70" type="curve" smooth="yes"/>
      <point x="190" y="-70"/>
      <point x="176" y="-84"/>
      <point x="176" y="-112" type="curve"/>
      <point x="176" y="-142"/>
      <point x="190" y="-155"/>
    </contour>
    <contour>
      <point x="144" y="-276" type="curve" smooth="yes"/>
      <point x="167" y="-276"/>
      <point x="182" y="-262"/>
      <point x="182" y="-233" type="curve" smooth="yes"/>
      <point x="182" y="-204"/>
      <point x="167" y="-191"/>
      <point x="144" y="-191" type="curve" smooth="yes"/>
      <point x="121" y="-191"/>
      <point x="106" y="-204"/>
      <point x="106" y="-233" type="curve"/>
      <point x="106" y="-263"/>
      <point x="121" y="-276"/>
    </contour>
    <contour>
      <point x="75" y="-155" type="curve" smooth="yes"/>
      <point x="98" y="-155"/>
      <point x="113" y="-141"/>
      <point x="113" y="-112" type="curve" smooth="yes"/>
      <point x="113" y="-84"/>
      <point x="98" y="-70"/>
      <point x="75" y="-70" type="curve" smooth="yes"/>
      <point x="52" y="-70"/>
      <point x="38" y="-84"/>
      <point x="38" y="-112" type="curve"/>
      <point x="38" y="-142"/>
      <point x="52" y="-155"/>
    </contour>
  </outline>
</glyph>
<glyph name="qamats-hb" format="2">
  <unicode hex="05B8"/>
  <note>
qamats
</note>
  <anchor x="139" y="0" name="_bottom"/>
  <outline>
    <contour>
      <point x="112" y="-231" type="line"/>
      <point x="166" y="-231" type="line"/>
      <point x="160" y="-137" type="line"/>
      <point x="217" y="-137" type="line"/>
      <point x="220" y="-84" type="line"/>
      <point x="61" y="-84" type="line"/>
      <point x="58" y="-137" type="line"/>
      <point x="119" y="-137" type="line"/>
    </contour>
  </outline>
</glyph>
<glyph name="holamhaser-hb" format="2">
  <unicode hex="05BA"/>
  <note>
uni05BA
</note>
  <anchor x="84" y="536" name="_topleft"/>
  <outline>
    <contour>
      <point x="83" y="670" type="curve" smooth="yes"/>
      <point x="106" y="670"/>
      <point x="121" y="684"/>
      <point x="121" y="713" type="curve" smooth="yes"/>
      <point x="121" y="741"/>
      <point x="106" y="755"/>
      <point x="83" y="755" type="curve" smooth="yes"/>
      <point x="60" y="755"/>
      <point x="46" y="741"/>
      <point x="46" y="713" type="curve"/>
      <point x="46" y="682"/>
      <point x="60" y="670"/>
    </contour>
  </outline>
</glyph>
<glyph name="qubuts-hb" format="2">
  <unicode hex="05BB"/>
  <note>
qubuts
</note>
  <anchor x="165" y="0" name="_bottom"/>
  <outline>
    <contour>
      <point x="255" y="-276" type="curve" smooth="yes"/>
      <point x="278" y="-276"/>
      <point x="294" y="-262"/>
      <point x="294" y="-233" type="curve" smooth="yes"/>
      <point x="294" y="-204"/>
      <point x="278" y="-191"/>
      <point x="255" y="-191" type="curve" smooth="yes"/>
      <point x="233" y="-191"/>
      <point x="218" y="-204"/>
      <point x="218" y="-233" type="curve"/>
      <point x="218" y="-263"/>
      <point x="233" y="-276"/>
    </contour>
    <contour>
      <point x="72" y="-155" type="curve" smooth="yes"/>
      <point x="95" y="-155"/>
      <point x="111" y="-141"/>
      <point x="111" y="-112" type="curve" smooth="yes"/>
      <point x="111" y="-84"/>
      <point x="95" y="-70"/>
      <point x="72" y="-70" type="curve" smooth="yes"/>
      <point x="50" y="-70"/>
      <point x="35" y="-84"/>
      <point x="35" y="-112" type="curve"/>
      <point x="35" y="-142"/>
      <point x="50" y="-155"/>
    </contour>
    <contour>
      <point x="164" y="-216" type="curve" smooth="yes"/>
      <point x="187" y="-216"/>
      <point x="202" y="-202"/>
      <point x="202" y="-173" type="curve" smooth="yes"/>
      <point x="202" y="-145"/>
      <point x="187" y="-131"/>
      <point x="164" y="-131" type="curve" smooth="yes"/>
      <point x="141" y="-131"/>
      <point x="126" y="-145"/>
      <point x="126" y="-173" type="curve"/>
      <point x="126" y="-203"/>
      <point x="141" y="-216"/>
    </contour>
  </outline>
</glyph>
<glyph name="dagesh-hb" format="2">
  <unicode hex="05BC"/>
  <note>
dagesh
</note>
  <anchor x="84" y="300" name="_center"/>
  <outline>
    <contour>
      <point x="46" y="300" type="curve"/>
      <point x="46" y="270"/>
      <point x="60" y="257"/>
      <point x="83" y="257" type="curve" smooth="yes"/>
      <point x="106" y="257"/>
      <point x="121" y="271"/>
      <point x="121" y="300" type="curve" smooth="yes"/>
      <point x="121" y="328"/>
      <point x="106" y="342"/>
      <point x="83" y="342" type="curve" smooth="yes"/>
      <point x="60" y="342"/>
      <point x="46" y="328"/>
    </contour>
  </outline>
</glyph>
<glyph name="siluqleft-hb" format="2">
  <unicode hex="05BD"/>
  <note>
meteg
</note>
  <anchor x="74" y="0" name="_bottomleft"/>
  <outline>
    <contour>
      <point x="47" y="-276" type="line"/>
      <point x="100" y="-273" type="line"/>
      <point x="100" y="-70" type="line"/>
      <point x="47" y="-73" type="line"/>
    </contour>
  </outline>
</glyph>
<glyph name="maqaf-hb" format="2">
  <advance width="312"/>
  <unicode hex="05BE"/>
  <outline>
    <contour>
      <point x="30" y="483" type="line"/>
      <point x="272" y="483" type="line"/>
      <point x="272" y="592" type="line"/>
      <point x="30" y="592" type="line"/>
    </contour>
  </outline>
</glyph>
<glyph name="rafe-hb" format="2">
  <unicode hex="05BF"/>
  <note>
rafe
</note>
  <anchor x="149" y="536" name="_top"/>
  <outline>
    <contour>
      <point x="57" y="674" type="line"/>
      <point x="238" y="674" type="line"/>
      <point x="241" y="727" type="line"/>
      <point x="60" y="727" type="line"/>
    </contour>
  </outline>
</glyph>
<glyph name="paseq-hb" format="2">
  <advance width="300"/>
  <unicode hex="05C0"/>
  <note>
paseq
</note>
  <outline>
    <contour>
      <point x="120" y="673" type="line"/>
      <point x="120" y="-81" type="line"/>
      <point x="180" y="-81" type="line"/>
      <point x="180" y="673" type="line"/>
    </contour>
  </outline>
</glyph>
<glyph name="lowerdot-hb" format="2">
  <unicode hex="05C5"/>
  <note>
lowerdot
</note>
  <anchor x="84" y="0" name="_bottom"/>
  <outline>
    <contour>
      <point x="83" y="-155" type="curve" smooth="yes"/>
      <point x="106" y="-155"/>
      <point x="121" y="-141"/>
      <point x="121" y="-112" type="curve" smooth="yes"/>
      <point x="121" y="-84"/>
      <point x="106" y="-70"/>
      <point x="83" y="-70" type="curve" smooth="yes"/>
      <point x="60" y="-70"/>
      <point x="46" y="-84"/>
      <point x="46" y="-112" type="curve"/>
      <point x="46" y="-142"/>
      <point x="60" y="-155"/>
    </contour>
  </outline>
</glyph>
<glyph name="nunhafukha-hb" format="2">
  <advance width="367"/>
  <unicode hex="05C6"/>
  <note>
uni05C6
</note>
  <outline>
    <contour>
      <point x="172" y="0" type="curve" smooth="yes"/>
      <point x="342" y="0" type="line"/>
      <point x="314" y="109" type="line"/>
      <point x="186" y="109" type="line" smooth="yes"/>
      <point x="132" y="109"/>
      <point x="119" y="129"/>
      <point x="119" y="179" type="curve" smooth="yes"/>
      <point x="119" y="393" type="line" smooth="yes"/>
      <point x="119" y="459"/>
      <point x="139" y="483"/>
      <point x="179" y="483" type="curve" smooth="yes"/>
      <point x="230" y="483" type="line" smooth="yes"/>
      <point x="261" y="483"/>
      <point x="279" y="502"/>
      <point x="279" y="552" type="curve" smooth="yes"/>
      <point x="279" y="578"/>
      <point x="276" y="591"/>
      <point x="265" y="647" type="curve"/>
      <point x="238" y="647" type="line"/>
      <point x="238" y="640" type="line" smooth="yes"/>
      <point x="238" y="608"/>
      <point x="217" y="592"/>
      <point x="185" y="592" type="curve" smooth="yes"/>
      <point x="153" y="592" type="line" smooth="yes"/>
      <point x="99" y="592"/>
      <point x="65" y="569"/>
      <point x="65" y="503" type="curve" smooth="yes"/>
      <point x="65" y="124" type="line" smooth="yes"/>
      <point x="65" y="37"/>
      <point x="92" y="0"/>
    </contour>
  </outline>
</glyph>
<glyph name="qamatsqatan-hb" format="2">
  <unicode hex="05C7"/>
  <note>
qamatsqatan
</note>
  <anchor x="119" y="0" name="_bottom"/>
  <outline>
    <contour>
      <point x="92" y="-208" type="line"/>
      <point x="146" y="-208" type="line"/>
      <point x="140" y="-137" type="line"/>
      <point x="194" y="-137" type="line"/>
      <point x="197" y="-84" type="line"/>
      <point x="44" y="-84" type="line"/>
      <point x="41" y="-137" type="line"/>
      <point x="99" y="-137" type="line"/>
    </contour>
  </outline>
</glyph>
<glyph name="alef-hb" format="2">
  <advance width="589"/>
  <unicode hex="05D0"/>
  <anchor x="328" y="0" name="bottom"/>
  <anchor x="83" y="0" name="bottomleft"/>
  <anchor x="269" y="136" name="center"/>
  <anchor x="276" y="536" name="top"/>
  <anchor x="19" y="536" name="topleft"/>
  <outline>
    <contour>
      <point x="487" y="-10" type="curve"/>
      <point x="501" y="-10" type="line"/>
      <point x="517" y="4"/>
      <point x="536" y="21"/>
      <point x="536" y="64" type="curve" smooth="yes"/>
      <point x="536" y="90"/>
      <point x="529" y="116"/>
      <point x="502" y="147" type="curve" smooth="yes"/>
      <point x="145" y="554" type="line" smooth="yes"/>
      <point x="107" y="596"/>
      <point x="101" y="623"/>
      <point x="101" y="643" type="curve" smooth="yes"/>
      <point x="101" y="647" type="line"/>
      <point x="77" y="647" type="line"/>
      <point x="65" y="617"/>
      <point x="52" y="597"/>
      <point x="52" y="558" type="curve" smooth="yes"/>
      <point x="52" y="545"/>
      <point x="53" y="504"/>
      <point x="86" y="467" type="curve" smooth="yes"/>
      <point x="450" y="52" type="line" smooth="yes"/>
      <point x="476" y="22"/>
      <point x="485" y="7"/>
    </contour>
    <contour>
      <point x="52" y="0" type="line"/>
      <point x="182" y="0" type="line"/>
      <point x="200" y="38"/>
      <point x="199" y="77"/>
      <point x="182" y="115" type="curve" smooth="yes"/>
      <point x="144" y="199" type="line" smooth="yes"/>
      <point x="121" y="249"/>
      <point x="125" y="284"/>
      <point x="149" y="329" type="curve" smooth="yes"/>
      <point x="180" y="387" type="line"/>
      <point x="153" y="417" type="line"/>
      <point x="95" y="323" type="line" smooth="yes"/>
      <point x="62" y="270"/>
      <point x="62" y="220"/>
      <point x="77" y="155" type="curve" smooth="yes"/>
      <point x="94" y="82" type="line" smooth="yes"/>
      <point x="100" y="57"/>
      <point x="91" y="46"/>
      <point x="61" y="46" type="curve" smooth="yes"/>
      <point x="52" y="46" type="line"/>
    </contour>
    <contour>
      <point x="398" y="261" type="line"/>
      <point x="398" y="301"/>
      <point x="405" y="341"/>
      <point x="428" y="385" type="curve" smooth="yes"/>
      <point x="483" y="488" type="line"/>
      <point x="443" y="500" type="line"/>
      <point x="384" y="391" type="line" smooth="yes"/>
      <point x="371" y="366"/>
      <point x="355" y="327"/>
      <point x="355" y="306" type="curve"/>
    </contour>
    <contour>
      <point x="541" y="468" type="line"/>
      <point x="547" y="504"/>
      <point x="549" y="516"/>
      <point x="549" y="530" type="curve" smooth="yes"/>
      <point x="549" y="563"/>
      <point x="537" y="580"/>
      <point x="510" y="584" type="curve" smooth="yes"/>
      <point x="455" y="593" type="line" smooth="yes"/>
      <point x="428" y="598"/>
      <point x="413" y="610"/>
      <point x="413" y="641" type="curve" smooth="yes"/>
      <point x="413" y="647" type="line"/>
      <point x="386" y="647" type="line"/>
      <point x="369" y="608"/>
      <point x="362" y="576"/>
      <point x="362" y="553" type="curve" smooth="yes"/>
      <point x="362" y="503"/>
      <point x="379" y="494"/>
      <point x="412" y="489" type="curve" smooth="yes"/>
    </contour>
  </outline>
</glyph>
<glyph name="bet-hb" format="2">
  <advance width="539"/>
  <unicode hex="05D1"/>
  <anchor x="264" y="0" name="bottom"/>
  <anchor x="24" y="0" name="bottomleft"/>
  <anchor x="237" y="300" name="center"/>
  <anchor x="235" y="536" name="top"/>
  <anchor x="15" y="536" name="topleft"/>
  <outline>
    <contour>
      <point x="34" y="0" type="line"/>
      <point x="494" y="0" type="line"/>
      <point x="494" y="109" type="line"/>
      <point x="427" y="109" type="line"/>
      <point x="437" y="141"/>
      <point x="442" y="175"/>
      <point x="442" y="242" type="curve" smooth="yes"/>
      <point x="442" y="476" type="line" smooth="yes"/>
      <point x="442" y="551"/>
      <point x="402" y="592"/>
      <point x="325" y="592" type="curve" smooth="yes"/>
      <point x="144" y="592" type="line" smooth="yes"/>
      <point x="109" y="592"/>
      <point x="91" y="612"/>
      <point x="91" y="644" type="curve" smooth="yes"/>
      <point x="91" y="647" type="line"/>
      <point x="64" y="647" type="line"/>
      <point x="53" y="597"/>
      <point x="50" y="577"/>
      <point x="50" y="555" type="curve" smooth="yes"/>
      <point x="50" y="503"/>
      <point x="67" y="483"/>
      <point x="99" y="483" type="curve" smooth="yes"/>
      <point x="305" y="483" type="line" smooth="yes"/>
      <point x="364" y="483"/>
      <point x="392" y="459"/>
      <point x="392" y="391" type="curve" smooth="yes"/>
      <point x="392" y="209" type="line" smooth="yes"/>
      <point x="392" y="155"/>
      <point x="389" y="141"/>
      <point x="378" y="109" type="curve"/>
      <point x="62" y="109" type="line"/>
    </contour>
  </outline>
</glyph>
<glyph name="gimel-hb" format="2">
  <advance width="377"/>
  <unicode hex="05D2"/>
  <anchor x="241" y="0" name="bottom"/>
  <anchor x="15" y="0" name="bottomleft"/>
  <anchor x="132" y="300" name="center"/>
  <anchor x="175" y="536" name="top"/>
  <anchor x="53" y="536" name="topleft"/>
  <outline>
    <contour>
      <point x="304" y="-9" type="curve"/>
      <point x="313" y="-9" type="line"/>
      <point x="325" y="-8"/>
      <point x="349" y="3"/>
      <point x="357" y="16" type="curve"/>
      <point x="315" y="113" type="line" smooth="yes"/>
      <point x="293" y="163"/>
      <point x="283" y="183"/>
      <point x="283" y="231" type="curve" smooth="yes"/>
      <point x="283" y="535" type="line" smooth="yes"/>
      <point x="283" y="577"/>
      <point x="270" y="592"/>
      <point x="236" y="592" type="curve" smooth="yes"/>
      <point x="181" y="592" type="line" smooth="yes"/>
      <point x="146" y="592"/>
      <point x="128" y="612"/>
      <point x="128" y="644" type="curve" smooth="yes"/>
      <point x="128" y="647" type="line"/>
      <point x="101" y="647" type="line"/>
      <point x="90" y="597"/>
      <point x="87" y="577"/>
      <point x="87" y="555" type="curve" smooth="yes"/>
      <point x="87" y="503"/>
      <point x="104" y="483"/>
      <point x="136" y="483" type="curve" smooth="yes"/>
      <point x="202" y="483" type="line" smooth="yes"/>
      <point x="225" y="483"/>
      <point x="229" y="473"/>
      <point x="229" y="447" type="curve" smooth="yes"/>
      <point x="229" y="167" type="line" smooth="yes"/>
      <point x="229" y="132"/>
      <point x="180" y="109"/>
      <point x="142" y="109" type="curve" smooth="yes"/>
      <point x="39" y="109" type="line"/>
      <point x="12" y="0" type="line"/>
      <point x="164" y="0" type="line" smooth="yes"/>
      <point x="190" y="0"/>
      <point x="205" y="12"/>
      <point x="216" y="41" type="curve" smooth="yes"/>
      <point x="244" y="111" type="line"/>
      <point x="264" y="78"/>
      <point x="278" y="49"/>
    </contour>
  </outline>
</glyph>
<glyph name="dalet-hb" format="2">
  <advance width="492"/>
  <unicode hex="05D3"/>
  <anchor x="365" y="0" name="bottom"/>
  <anchor x="172" y="0" name="bottomleft"/>
  <anchor x="191" y="300" name="center"/>
  <anchor x="254" y="536" name="top"/>
  <anchor x="10" y="536" name="topleft"/>
  <outline>
    <contour>
      <point x="320" y="-7" type="line"/>
      <point x="335" y="-7" type="line"/>
      <point x="358" y="3"/>
      <point x="374" y="14"/>
      <point x="389" y="29" type="curve"/>
      <point x="375" y="483" type="line"/>
      <point x="442" y="483" type="line"/>
      <point x="442" y="559" type="line" smooth="yes"/>
      <point x="442" y="584"/>
      <point x="434" y="592"/>
      <point x="412" y="592" type="curve" smooth="yes"/>
      <point x="106" y="592" type="line" smooth="yes"/>
      <point x="71" y="592"/>
      <point x="53" y="612"/>
      <point x="53" y="644" type="curve" smooth="yes"/>
      <point x="53" y="647" type="line"/>
      <point x="26" y="647" type="line"/>
      <point x="15" y="597"/>
      <point x="12" y="578"/>
      <point x="12" y="552" type="curve" smooth="yes"/>
      <point x="12" y="503"/>
      <point x="30" y="483"/>
      <point x="61" y="483" type="curve" smooth="yes"/>
      <point x="339" y="483" type="line"/>
      <point x="339" y="482" type="line"/>
      <point x="332" y="449"/>
      <point x="320" y="393"/>
      <point x="320" y="304" type="curve" smooth="yes"/>
    </contour>
  </outline>
</glyph>
<glyph name="he-hb" format="2">
  <advance width="605"/>
  <unicode hex="05D4"/>
  <anchor x="298" y="0" name="bottom"/>
  <anchor x="85" y="0" name="bottomleft"/>
  <anchor x="297" y="300" name="center"/>
  <anchor x="301" y="536" name="top"/>
  <anchor x="71" y="536" name="topleft"/>
  <outline>
    <contour>
      <point x="448" y="-7" type="line"/>
      <point x="463" y="-7" type="line"/>
      <point x="486" y="3"/>
      <point x="502" y="14"/>
      <point x="517" y="29" type="curve"/>
      <point x="504" y="483" type="line"/>
      <point x="530" y="492" type="line"/>
      <point x="530" y="559" type="line" smooth="yes"/>
      <point x="530" y="584"/>
      <point x="522" y="592"/>
      <point x="500" y="592" type="curve" smooth="yes"/>
      <point x="154" y="592" type="line" smooth="yes"/>
      <point x="123" y="592"/>
      <point x="101" y="605"/>
      <point x="101" y="637" type="curve" smooth="yes"/>
      <point x="101" y="647" type="line"/>
      <point x="74" y="647" type="line"/>
      <point x="63" y="597"/>
      <point x="60" y="578"/>
      <point x="60" y="552" type="curve" smooth="yes"/>
      <point x="60" y="503"/>
      <point x="78" y="483"/>
      <point x="109" y="483" type="curve" smooth="yes"/>
      <point x="467" y="483" type="line"/>
      <point x="467" y="480" type="line"/>
      <point x="460" y="447"/>
      <point x="448" y="391.405"/>
      <point x="448" y="300" type="curve" smooth="yes"/>
    </contour>
    <contour>
      <point x="78" y="-7" type="line"/>
      <point x="93" y="-7" type="line"/>
      <point x="116" y="3"/>
      <point x="132" y="14"/>
      <point x="147" y="29" type="curve"/>
      <point x="145.995" y="336.419" type="line"/>
      <point x="140" y="343" type="line"/>
      <point x="108" y="334" type="line" smooth="yes"/>
      <point x="87" y="328"/>
      <point x="78" y="306.743"/>
      <point x="78" y="262" type="curve" smooth="yes"/>
    </contour>
  </outline>
</glyph>
<glyph name="vav-hb" format="2">
  <advance width="326"/>
  <unicode hex="05D5"/>
  <anchor x="215" y="0" name="bottom"/>
  <anchor x="14" y="0" name="bottomleft"/>
  <anchor x="103" y="300" name="center"/>
  <anchor x="153" y="536" name="top"/>
  <anchor x="-1" y="536" name="topleft"/>
  <outline>
    <contour>
      <point x="182" y="-7" type="line"/>
      <point x="197" y="-7" type="line"/>
      <point x="224" y="4"/>
      <point x="236" y="14"/>
      <point x="251" y="30" type="curve"/>
      <point x="238" y="535" type="line" smooth="yes"/>
      <point x="237" y="577"/>
      <point x="225" y="592"/>
      <point x="191" y="592" type="curve" smooth="yes"/>
      <point x="134" y="592" type="line" smooth="yes"/>
      <point x="99" y="592"/>
      <point x="81" y="612"/>
      <point x="81" y="644" type="curve" smooth="yes"/>
      <point x="81" y="647" type="line"/>
      <point x="54" y="647" type="line"/>
      <point x="43" y="597"/>
      <point x="40" y="577"/>
      <point x="40" y="555" type="curve" smooth="yes"/>
      <point x="40" y="503"/>
      <point x="57" y="483"/>
      <point x="89" y="483" type="curve" smooth="yes"/>
      <point x="155" y="483" type="line" smooth="yes"/>
      <point x="178" y="483"/>
      <point x="182" y="473"/>
      <point x="182" y="447" type="curve" smooth="yes"/>
    </contour>
  </outline>
</glyph>
<glyph name="zayin-hb" format="2">
  <advance width="302"/>
  <unicode hex="05D6"/>
  <anchor x="185" y="0" name="bottom"/>
  <anchor x="-21" y="0" name="bottomleft"/>
  <anchor x="34" y="300" name="center"/>
  <anchor x="174" y="536" name="top"/>
  <anchor x="16" y="536" name="topleft"/>
  <outline>
    <contour>
      <point x="145" y="-6" type="curve"/>
      <point x="160" y="-6" type="line"/>
      <point x="189" y="4"/>
      <point x="209" y="15"/>
      <point x="224" y="30" type="curve"/>
      <point x="191" y="135"/>
      <point x="170" y="217"/>
      <point x="170" y="315" type="curve" smooth="yes"/>
      <point x="170" y="363"/>
      <point x="175" y="418"/>
      <point x="193" y="502" type="curve"/>
      <point x="149" y="502" type="line"/>
      <point x="133" y="457"/>
      <point x="110" y="354"/>
      <point x="110" y="277" type="curve" smooth="yes"/>
      <point x="110" y="205"/>
      <point x="130" y="73"/>
    </contour>
    <contour>
      <point x="254" y="469" type="line"/>
      <point x="260" y="502"/>
      <point x="262" y="517"/>
      <point x="262" y="530" type="curve" smooth="yes"/>
      <point x="262" y="563"/>
      <point x="250" y="579"/>
      <point x="223" y="583" type="curve" smooth="yes"/>
      <point x="143" y="594" type="line" smooth="yes"/>
      <point x="116" y="598"/>
      <point x="104" y="610"/>
      <point x="104" y="639" type="curve" smooth="yes"/>
      <point x="104" y="647" type="line"/>
      <point x="77" y="647" type="line"/>
      <point x="57" y="598"/>
      <point x="50" y="577"/>
      <point x="50" y="548" type="curve" smooth="yes"/>
      <point x="50" y="509"/>
      <point x="63" y="495"/>
      <point x="100" y="490" type="curve" smooth="yes"/>
    </contour>
  </outline>
</glyph>
<glyph name="het-hb" format="2">
  <advance width="630"/>
  <unicode hex="05D7"/>
  <anchor x="337" y="0" name="bottom"/>
  <anchor x="85" y="0" name="bottomleft"/>
  <anchor x="337" y="300" name="center"/>
  <anchor x="339" y="536" name="top"/>
  <anchor x="85" y="536" name="topleft"/>
  <outline>
    <contour>
      <point x="483" y="-7" type="line"/>
      <point x="498" y="-7" type="line"/>
      <point x="521" y="3"/>
      <point x="537" y="14"/>
      <point x="552" y="29" type="curve"/>
      <point x="539" y="483" type="line"/>
      <point x="565" y="492" type="line"/>
      <point x="565" y="559" type="line" smooth="yes"/>
      <point x="565" y="584"/>
      <point x="557" y="592"/>
      <point x="535" y="592" type="curve" smooth="yes"/>
      <point x="169" y="592" type="line" smooth="yes"/>
      <point x="134" y="592"/>
      <point x="116" y="612"/>
      <point x="116" y="644" type="curve" smooth="yes"/>
      <point x="116" y="647" type="line"/>
      <point x="89" y="647" type="line"/>
      <point x="78" y="597"/>
      <point x="75" y="577"/>
      <point x="75" y="555" type="curve" smooth="yes"/>
      <point x="75" y="503"/>
      <point x="92" y="483"/>
      <point x="124" y="483" type="curve" smooth="yes"/>
      <point x="502" y="483" type="line"/>
      <point x="502" y="480" type="line"/>
      <point x="495" y="447"/>
      <point x="483" y="388"/>
      <point x="483" y="299" type="curve" smooth="yes"/>
    </contour>
    <contour>
      <point x="122" y="-7" type="line"/>
      <point x="137" y="-7" type="line"/>
      <point x="160" y="3"/>
      <point x="176" y="14"/>
      <point x="191" y="29" type="curve"/>
      <point x="180" y="541" type="line"/>
      <point x="141" y="541" type="line"/>
      <point x="141" y="480" type="line"/>
      <point x="134" y="447"/>
      <point x="122" y="388"/>
      <point x="122" y="299" type="curve" smooth="yes"/>
    </contour>
  </outline>
</glyph>
<glyph name="tet-hb" format="2">
  <advance width="637"/>
  <unicode hex="05D8"/>
  <anchor x="321" y="0" name="bottom"/>
  <anchor x="107" y="0" name="bottomleft"/>
  <anchor x="343" y="300" name="center"/>
  <anchor x="369" y="536" name="top"/>
  <anchor x="22" y="536" name="topleft"/>
  <outline>
    <contour>
      <point x="133" y="0" type="curve"/>
      <point x="400" y="0" type="line" smooth="yes"/>
      <point x="479" y="0"/>
      <point x="489" y="12"/>
      <point x="509" y="55" type="curve" smooth="yes"/>
      <point x="577" y="201"/>
      <point x="582" y="317"/>
      <point x="582" y="371" type="curve" smooth="yes"/>
      <point x="582" y="518"/>
      <point x="544" y="604"/>
      <point x="456" y="604" type="curve" smooth="yes"/>
      <point x="378" y="604"/>
      <point x="328" y="537"/>
      <point x="311" y="415" type="curve"/>
      <point x="341" y="415" type="line"/>
      <point x="354" y="468"/>
      <point x="375" y="497"/>
      <point x="420" y="497" type="curve" smooth="yes"/>
      <point x="466" y="497"/>
      <point x="527" y="468"/>
      <point x="527" y="330" type="curve" smooth="yes"/>
      <point x="527" y="268"/>
      <point x="515" y="217"/>
      <point x="493" y="178" type="curve" smooth="yes"/>
      <point x="468" y="134"/>
      <point x="430" y="109"/>
      <point x="382" y="109" type="curve" smooth="yes"/>
      <point x="192" y="109" type="line"/>
      <point x="164" y="204"/>
      <point x="159" y="262"/>
      <point x="159" y="303" type="curve" smooth="yes"/>
      <point x="159" y="358"/>
      <point x="168" y="440"/>
      <point x="185" y="508" type="curve"/>
      <point x="143" y="508" type="line"/>
      <point x="122" y="445"/>
      <point x="99" y="352"/>
      <point x="99" y="286" type="curve" smooth="yes"/>
      <point x="99" y="240"/>
      <point x="110" y="146"/>
    </contour>
    <contour>
      <point x="244" y="469" type="line"/>
      <point x="250" y="502"/>
      <point x="252" y="517"/>
      <point x="252" y="530" type="curve" smooth="yes"/>
      <point x="252" y="563"/>
      <point x="240" y="580"/>
      <point x="213" y="584" type="curve" smooth="yes"/>
      <point x="143" y="593" type="line" smooth="yes"/>
      <point x="115" y="597"/>
      <point x="104" y="611"/>
      <point x="104" y="642" type="curve" smooth="yes"/>
      <point x="104" y="647" type="line"/>
      <point x="77" y="647" type="line"/>
      <point x="57" y="597"/>
      <point x="50" y="576"/>
      <point x="50" y="552" type="curve" smooth="yes"/>
      <point x="50" y="508"/>
      <point x="64" y="495"/>
      <point x="100" y="490" type="curve" smooth="yes"/>
    </contour>
  </outline>
</glyph>
<glyph name="yod-hb" format="2">
  <advance width="324"/>
  <unicode hex="05D9"/>
  <anchor x="165" y="0" name="bottom"/>
  <anchor x="-11" y="0" name="bottomleft"/>
  <anchor x="102" y="408" name="center"/>
  <anchor x="161" y="536" name="top"/>
  <anchor x="75" y="536" name="topleft"/>
  <outline>
    <contour>
      <point x="146" y="263" type="line"/>
      <point x="211" y="340" type="line" smooth="yes"/>
      <point x="245" y="381"/>
      <point x="274" y="441"/>
      <point x="274" y="502" type="curve" smooth="yes"/>
      <point x="274" y="559"/>
      <point x="250" y="592"/>
      <point x="200" y="592" type="curve" smooth="yes"/>
      <point x="134" y="592" type="line" smooth="yes"/>
      <point x="101" y="592"/>
      <point x="81" y="608"/>
      <point x="81" y="643" type="curve" smooth="yes"/>
      <point x="81" y="647" type="line"/>
      <point x="54" y="647" type="line"/>
      <point x="43" y="591"/>
      <point x="40" y="577"/>
      <point x="40" y="555" type="curve" smooth="yes"/>
      <point x="40" y="503"/>
      <point x="57" y="483"/>
      <point x="89" y="483" type="curve" smooth="yes"/>
      <point x="177" y="483" type="line" smooth="yes"/>
      <point x="198" y="483"/>
      <point x="203" y="471"/>
      <point x="203" y="452" type="curve" smooth="yes"/>
      <point x="203" y="419"/>
      <point x="190" y="392"/>
      <point x="142" y="336" type="curve" smooth="yes"/>
      <point x="111" y="300" type="line"/>
    </contour>
  </outline>
</glyph>
<glyph name="finalkaf-hb" format="2">
  <advance width="501"/>
  <unicode hex="05DA"/>
  <anchor x="205" y="409" name="bottom"/>
  <anchor x="25" y="0" name="bottomleft"/>
  <anchor x="201" y="300" name="center"/>
  <anchor x="230" y="536" name="top"/>
  <anchor x="14" y="536" name="topleft"/>
  <outline>
    <contour>
      <point x="344" y="-240" type="line"/>
      <point x="359" y="-240" type="line"/>
      <point x="382" y="-230"/>
      <point x="398" y="-219"/>
      <point x="413" y="-204" type="curve"/>
      <point x="402" y="333" type="line" smooth="yes"/>
      <point x="400" y="428"/>
      <point x="405" y="456"/>
      <point x="426" y="494" type="curve"/>
      <point x="426" y="559" type="line" smooth="yes"/>
      <point x="426" y="584"/>
      <point x="418" y="592"/>
      <point x="396" y="592" type="curve" smooth="yes"/>
      <point x="106" y="592" type="line" smooth="yes"/>
      <point x="71" y="592"/>
      <point x="53" y="612"/>
      <point x="53" y="644" type="curve" smooth="yes"/>
      <point x="53" y="647" type="line"/>
      <point x="26" y="647" type="line"/>
      <point x="15" y="597"/>
      <point x="12" y="577"/>
      <point x="12" y="555" type="curve" smooth="yes"/>
      <point x="12" y="503"/>
      <point x="29" y="483"/>
      <point x="61" y="483" type="curve" smooth="yes"/>
      <point x="373" y="483" type="line"/>
      <point x="373" y="481" type="line"/>
      <point x="353" y="434"/>
      <point x="344" y="375"/>
      <point x="344" y="299" type="curve" smooth="yes"/>
    </contour>
  </outline>
</glyph>
<glyph name="kaf-hb" format="2">
  <advance width="550"/>
  <unicode hex="05DB"/>
  <anchor x="274" y="0" name="bottom"/>
  <anchor x="43" y="0" name="bottomleft"/>
  <anchor x="255" y="300" name="center"/>
  <anchor x="236" y="536" name="top"/>
  <anchor x="44" y="536" name="topleft"/>
  <outline>
    <contour>
      <point x="49" y="0" type="line"/>
      <point x="343" y="0" type="line" smooth="yes"/>
      <point x="411" y="0"/>
      <point x="485" y="58"/>
      <point x="485" y="192" type="curve" smooth="yes"/>
      <point x="485" y="444" type="line" smooth="yes"/>
      <point x="485" y="528"/>
      <point x="423" y="592"/>
      <point x="324" y="592" type="curve" smooth="yes"/>
      <point x="152" y="592" type="line" smooth="yes"/>
      <point x="117" y="592"/>
      <point x="99" y="612"/>
      <point x="99" y="644" type="curve" smooth="yes"/>
      <point x="99" y="647" type="line"/>
      <point x="72" y="647" type="line"/>
      <point x="61" y="597"/>
      <point x="58" y="577"/>
      <point x="58" y="555" type="curve" smooth="yes"/>
      <point x="58" y="503"/>
      <point x="75" y="483"/>
      <point x="107" y="483" type="curve" smooth="yes"/>
      <point x="325" y="483" type="line" smooth="yes"/>
      <point x="374" y="483"/>
      <point x="431" y="454"/>
      <point x="431" y="376" type="curve" smooth="yes"/>
      <point x="431" y="227" type="line" smooth="yes"/>
      <point x="431" y="150"/>
      <point x="379" y="109"/>
      <point x="296" y="109" type="curve" smooth="yes"/>
      <point x="76" y="109" type="line"/>
    </contour>
  </outline>
</glyph>
<glyph name="lamed-hb" format="2">
  <advance width="503"/>
  <unicode hex="05DC"/>
  <anchor x="214" y="0" name="bottom"/>
  <anchor x="215" y="0" name="bottomleft"/>
  <anchor x="188" y="325" name="center"/>
  <anchor x="252" y="536" name="top"/>
  <anchor x="-57" y="536" name="topleft"/>
  <outline>
    <contour>
      <point x="215" y="-7" type="curve" smooth="yes"/>
      <point x="241" y="-7"/>
      <point x="251" y="8"/>
      <point x="251" y="41" type="curve" smooth="yes"/>
      <point x="251" y="67" type="line" smooth="yes"/>
      <point x="251" y="94"/>
      <point x="255" y="109"/>
      <point x="271" y="125" type="curve" smooth="yes"/>
      <point x="413" y="281" type="line" smooth="yes"/>
      <point x="439" y="310"/>
      <point x="446" y="333"/>
      <point x="446" y="359" type="curve" smooth="yes"/>
      <point x="447" y="493" type="line" smooth="yes"/>
      <point x="447" y="538"/>
      <point x="438" y="592"/>
      <point x="360" y="592" type="curve" smooth="yes"/>
      <point x="135" y="592" type="line" smooth="yes"/>
      <point x="102" y="592"/>
      <point x="87" y="608"/>
      <point x="96" y="643" type="curve" smooth="yes"/>
      <point x="126" y="758" type="line" smooth="yes"/>
      <point x="140" y="810"/>
      <point x="131" y="830"/>
      <point x="105" y="834" type="curve" smooth="yes"/>
      <point x="70" y="839" type="line" smooth="yes"/>
      <point x="57" y="841"/>
      <point x="48" y="850"/>
      <point x="48" y="870" type="curve" smooth="yes"/>
      <point x="48" y="873" type="line"/>
      <point x="28" y="873" type="line"/>
      <point x="24" y="862"/>
      <point x="12" y="828"/>
      <point x="12" y="810" type="curve" smooth="yes"/>
      <point x="12" y="790"/>
      <point x="14" y="772"/>
      <point x="40" y="769" type="curve" smooth="yes"/>
      <point x="70" y="765" type="line" smooth="yes"/>
      <point x="82" y="763"/>
      <point x="86" y="757"/>
      <point x="82" y="743" type="curve" smooth="yes"/>
      <point x="70" y="703"/>
      <point x="35" y="592"/>
      <point x="35" y="548" type="curve" smooth="yes"/>
      <point x="35" y="507"/>
      <point x="51" y="483"/>
      <point x="84" y="483" type="curve" smooth="yes"/>
      <point x="347" y="483" type="line" smooth="yes"/>
      <point x="376" y="483"/>
      <point x="393" y="467"/>
      <point x="393" y="437" type="curve" smooth="yes"/>
      <point x="393" y="358" type="line" smooth="yes"/>
      <point x="393" y="342"/>
      <point x="387" y="332"/>
      <point x="370" y="313" type="curve" smooth="yes"/>
      <point x="223" y="150" type="line" smooth="yes"/>
      <point x="194" y="118"/>
      <point x="182" y="97"/>
      <point x="182" y="65" type="curve" smooth="yes"/>
      <point x="182" y="41" type="line" smooth="yes"/>
      <point x="182" y="5"/>
      <point x="191" y="-7"/>
    </contour>
  </outline>
</glyph>
<glyph name="mem-hb" format="2">
  <advance width="629"/>
  <unicode hex="05DE"/>
  <anchor x="329" y="0" name="bottom"/>
  <anchor x="95" y="0" name="bottomleft"/>
  <anchor x="346" y="300" name="center"/>
  <anchor x="346" y="536" name="top"/>
  <anchor x="50" y="536" name="topleft"/>
  <outline>
    <contour>
      <point x="61" y="0" type="line"/>
      <point x="115" y="0" type="line"/>
      <point x="151" y="260" type="line" smooth="yes"/>
      <point x="166" y="366"/>
      <point x="244" y="487"/>
      <point x="365" y="487" type="curve" smooth="yes"/>
      <point x="472" y="487"/>
      <point x="520" y="391"/>
      <point x="520" y="239" type="curve" smooth="yes"/>
      <point x="520" y="195"/>
      <point x="516" y="166"/>
      <point x="510" y="144" type="curve" smooth="yes"/>
      <point x="502" y="113"/>
      <point x="495" y="109"/>
      <point x="465" y="109" type="curve" smooth="yes"/>
      <point x="249" y="109" type="line"/>
      <point x="233" y="0" type="line"/>
      <point x="543" y="0" type="line"/>
      <point x="569" y="161"/>
      <point x="574" y="199"/>
      <point x="574" y="263" type="curve" smooth="yes"/>
      <point x="574" y="480"/>
      <point x="517" y="598"/>
      <point x="321" y="598" type="curve" smooth="yes"/>
      <point x="314" y="598" type="line"/>
      <point x="222" y="498" type="line"/>
      <point x="219" y="499" type="line"/>
      <point x="219" y="541" type="line" smooth="yes"/>
      <point x="219" y="580"/>
      <point x="204" y="592"/>
      <point x="157" y="592" type="curve" smooth="yes"/>
      <point x="139" y="592" type="line" smooth="yes"/>
      <point x="107" y="592"/>
      <point x="86" y="611"/>
      <point x="86" y="644" type="curve" smooth="yes"/>
      <point x="86" y="647" type="line"/>
      <point x="59" y="647" type="line"/>
      <point x="48" y="591"/>
      <point x="45" y="577"/>
      <point x="45" y="555" type="curve" smooth="yes"/>
      <point x="45" y="503"/>
      <point x="62" y="483"/>
      <point x="94" y="483" type="curve" smooth="yes"/>
      <point x="151" y="483" type="line" smooth="yes"/>
      <point x="168" y="483"/>
      <point x="177" y="479"/>
      <point x="177" y="470" type="curve" smooth="yes"/>
      <point x="177" y="463"/>
      <point x="174" y="452"/>
      <point x="163" y="432" type="curve" smooth="yes"/>
      <point x="143" y="396"/>
      <point x="109" y="341"/>
      <point x="95" y="241" type="curve" smooth="yes"/>
    </contour>
  </outline>
</glyph>
<glyph name="finalnun-hb" format="2">
  <advance width="280"/>
  <unicode hex="05DF"/>
  <anchor x="20" y="0" name="bottomleft"/>
  <anchor x="62" y="300" name="center"/>
  <anchor x="117" y="536" name="top"/>
  <anchor x="20" y="536" name="topleft"/>
  <outline>
    <contour>
      <point x="123" y="-240" type="line"/>
      <point x="138" y="-240" type="line"/>
      <point x="161" y="-230"/>
      <point x="177" y="-219"/>
      <point x="192" y="-204" type="curve"/>
      <point x="181" y="333" type="line" smooth="yes"/>
      <point x="179" y="434"/>
      <point x="185" y="458"/>
      <point x="205" y="493" type="curve"/>
      <point x="205" y="559" type="line" smooth="yes"/>
      <point x="205" y="584"/>
      <point x="197" y="592"/>
      <point x="175" y="592" type="curve" smooth="yes"/>
      <point x="109" y="592" type="line" smooth="yes"/>
      <point x="76" y="592"/>
      <point x="56" y="610"/>
      <point x="56" y="644" type="curve" smooth="yes"/>
      <point x="56" y="647" type="line"/>
      <point x="29" y="647" type="line"/>
      <point x="18" y="591"/>
      <point x="15" y="578"/>
      <point x="15" y="552" type="curve" smooth="yes"/>
      <point x="15" y="503"/>
      <point x="33" y="483"/>
      <point x="64" y="483" type="curve" smooth="yes"/>
      <point x="152" y="483" type="line"/>
      <point x="152" y="480" type="line"/>
      <point x="134" y="437"/>
      <point x="123" y="380"/>
      <point x="123" y="299" type="curve" smooth="yes"/>
    </contour>
  </outline>
</glyph>
<glyph name="nun-hb" format="2">
  <advance width="367"/>
  <unicode hex="05E0"/>
  <anchor x="160" y="0" name="bottom"/>
  <anchor x="7" y="0" name="bottomleft"/>
  <anchor x="130" y="300" name="center"/>
  <anchor x="197" y="536" name="top"/>
  <anchor x="72" y="536" name="topleft"/>
  <outline>
    <contour>
      <point x="25" y="0" type="line"/>
      <point x="195" y="0" type="line" smooth="yes"/>
      <point x="275" y="0"/>
      <point x="302" y="37"/>
      <point x="302" y="124" type="curve" smooth="yes"/>
      <point x="302" y="503" type="line" smooth="yes"/>
      <point x="302" y="569"/>
      <point x="268" y="592"/>
      <point x="214" y="592" type="curve" smooth="yes"/>
      <point x="182" y="592" type="line" smooth="yes"/>
      <point x="149" y="592"/>
      <point x="129" y="610"/>
      <point x="129" y="644" type="curve" smooth="yes"/>
      <point x="129" y="647" type="line"/>
      <point x="102" y="647" type="line"/>
      <point x="91" y="591"/>
      <point x="88" y="578"/>
      <point x="88" y="552" type="curve" smooth="yes"/>
      <point x="88" y="502"/>
      <point x="106" y="483"/>
      <point x="137" y="483" type="curve" smooth="yes"/>
      <point x="188" y="483" type="line" smooth="yes"/>
      <point x="228" y="483"/>
      <point x="248" y="459"/>
      <point x="248" y="393" type="curve" smooth="yes"/>
      <point x="248" y="179" type="line" smooth="yes"/>
      <point x="248" y="129"/>
      <point x="235" y="109"/>
      <point x="181" y="109" type="curve" smooth="yes"/>
      <point x="53" y="109" type="line"/>
    </contour>
  </outline>
</glyph>
<glyph name="samekh-hb" format="2">
  <advance width="583"/>
  <unicode hex="05E1"/>
  <anchor x="285" y="0" name="bottom"/>
  <anchor x="79" y="0" name="bottomleft"/>
  <anchor x="285" y="300" name="center"/>
  <anchor x="282" y="536" name="top"/>
  <anchor x="41" y="536" name="topleft"/>
  <outline>
    <contour>
      <point x="282" y="-9" type="curve" smooth="yes"/>
      <point x="499" y="-9"/>
      <point x="528" y="201"/>
      <point x="528" y="346" type="curve" smooth="yes"/>
      <point x="528" y="373"/>
      <point x="527" y="423"/>
      <point x="511" y="477" type="curve" smooth="yes"/>
      <point x="488" y="554"/>
      <point x="450" y="592"/>
      <point x="367" y="592" type="curve" smooth="yes"/>
      <point x="148" y="592" type="line" smooth="yes"/>
      <point x="116" y="592"/>
      <point x="96" y="609"/>
      <point x="96" y="642" type="curve" smooth="yes"/>
      <point x="96" y="647" type="line"/>
      <point x="69" y="647" type="line"/>
      <point x="58" y="591"/>
      <point x="55" y="576"/>
      <point x="55" y="557" type="curve" smooth="yes"/>
      <point x="55" y="499"/>
      <point x="83" y="483"/>
      <point x="104" y="483" type="curve" smooth="yes"/>
      <point x="350" y="483" type="line" smooth="yes"/>
      <point x="450" y="483"/>
      <point x="476" y="397"/>
      <point x="476" y="308" type="curve" smooth="yes"/>
      <point x="476" y="171"/>
      <point x="414" y="100"/>
      <point x="285" y="100" type="curve" smooth="yes"/>
      <point x="167" y="100"/>
      <point x="109" y="159"/>
      <point x="109" y="285" type="curve" smooth="yes"/>
      <point x="109" y="384"/>
      <point x="142" y="455"/>
      <point x="154" y="483" type="curve"/>
      <point x="154" y="499" type="line"/>
      <point x="120" y="499" type="line"/>
      <point x="120" y="481" type="line"/>
      <point x="91" y="422"/>
      <point x="55" y="353"/>
      <point x="55" y="266" type="curve" smooth="yes"/>
      <point x="55" y="117"/>
      <point x="114" y="-9"/>
    </contour>
  </outline>
</glyph>
<glyph name="ayin-hb" format="2">
  <advance width="534"/>
  <unicode hex="05E2"/>
  <anchor x="266" y="0" name="bottom"/>
  <anchor x="-1" y="0" name="bottomleft"/>
  <anchor x="289" y="366" name="center"/>
  <anchor x="266" y="536" name="top"/>
  <anchor x="31" y="536" name="topleft"/>
  <outline>
    <contour>
      <point x="34" y="-86" type="line"/>
      <point x="55" y="-86" type="line"/>
      <point x="212" y="18" type="line" smooth="yes"/>
      <point x="383" y="131"/>
      <point x="469" y="375"/>
      <point x="487" y="483" type="curve" smooth="yes"/>
      <point x="495" y="532" type="line" smooth="yes"/>
      <point x="500" y="562"/>
      <point x="483" y="580"/>
      <point x="455" y="584" type="curve" smooth="yes"/>
      <point x="395" y="593" type="line" smooth="yes"/>
      <point x="368" y="597"/>
      <point x="353" y="611"/>
      <point x="353" y="643" type="curve" smooth="yes"/>
      <point x="353" y="647" type="line"/>
      <point x="326" y="647" type="line"/>
      <point x="307" y="595"/>
      <point x="302" y="576"/>
      <point x="302" y="551" type="curve" smooth="yes"/>
      <point x="302" y="505"/>
      <point x="318" y="495"/>
      <point x="352" y="490" type="curve" smooth="yes"/>
      <point x="438" y="478" type="line"/>
      <point x="436" y="468" type="line" smooth="yes"/>
      <point x="420" y="386"/>
      <point x="338" y="210"/>
      <point x="211" y="137" type="curve" smooth="yes"/>
      <point x="34" y="35" type="line"/>
    </contour>
    <contour>
      <point x="213" y="115" type="line"/>
      <point x="278" y="146" type="line"/>
      <point x="178" y="342" type="line" smooth="yes"/>
      <point x="157" y="384"/>
      <point x="147" y="450"/>
      <point x="154" y="501" type="curve"/>
      <point x="118" y="502" type="line"/>
      <point x="106" y="434"/>
      <point x="111" y="344"/>
      <point x="134" y="292" type="curve" smooth="yes"/>
    </contour>
    <contour>
      <point x="224" y="469" type="line"/>
      <point x="230" y="505"/>
      <point x="232" y="516"/>
      <point x="232" y="530" type="curve" smooth="yes"/>
      <point x="232" y="563"/>
      <point x="220" y="580"/>
      <point x="193" y="584" type="curve" smooth="yes"/>
      <point x="123" y="593" type="line" smooth="yes"/>
      <point x="95" y="597"/>
      <point x="81" y="612"/>
      <point x="81" y="643" type="curve" smooth="yes"/>
      <point x="81" y="647" type="line"/>
      <point x="54" y="647" type="line"/>
      <point x="37" y="601"/>
      <point x="30" y="577"/>
      <point x="30" y="548" type="curve" smooth="yes"/>
      <point x="30" y="508"/>
      <point x="44" y="495"/>
      <point x="80" y="490" type="curve" smooth="yes"/>
    </contour>
  </outline>
</glyph>
<glyph name="finalpe-hb" format="2">
  <advance width="552"/>
  <unicode hex="05E3"/>
  <anchor x="10" y="0" name="bottomleft"/>
  <anchor x="327" y="278" name="center"/>
  <anchor x="262" y="536" name="top"/>
  <anchor x="10" y="536" name="topleft"/>
  <outline>
    <contour>
      <point x="418" y="-240" type="line"/>
      <point x="433" y="-240" type="line"/>
      <point x="456" y="-230"/>
      <point x="472" y="-219"/>
      <point x="487" y="-204" type="curve"/>
      <point x="476" y="478" type="line" smooth="yes"/>
      <point x="475" y="554"/>
      <point x="438" y="592"/>
      <point x="360" y="592" type="curve" smooth="yes"/>
      <point x="117" y="592" type="line" smooth="yes"/>
      <point x="90" y="592"/>
      <point x="66" y="611"/>
      <point x="66" y="645" type="curve" smooth="yes"/>
      <point x="66" y="647" type="line"/>
      <point x="39" y="647" type="line"/>
      <point x="28" y="591"/>
      <point x="25" y="577"/>
      <point x="25" y="555" type="curve" smooth="yes"/>
      <point x="25" y="502"/>
      <point x="42" y="483"/>
      <point x="74" y="483" type="curve" smooth="yes"/>
      <point x="354" y="483" type="line" smooth="yes"/>
      <point x="399" y="483"/>
      <point x="418" y="467"/>
      <point x="418" y="423" type="curve" smooth="yes"/>
    </contour>
    <contour>
      <point x="212" y="217" type="curve"/>
      <point x="219" y="228"/>
      <point x="236" y="249"/>
      <point x="236" y="278" type="curve" smooth="yes"/>
      <point x="236" y="319"/>
      <point x="202" y="336"/>
      <point x="170" y="336" type="curve" smooth="yes"/>
      <point x="142" y="336"/>
      <point x="124" y="324"/>
      <point x="111" y="316" type="curve"/>
      <point x="111" y="322" type="line" smooth="yes"/>
      <point x="111" y="390"/>
      <point x="142" y="457"/>
      <point x="157" y="496" type="curve"/>
      <point x="157" y="499" type="line"/>
      <point x="106" y="499" type="line"/>
      <point x="106" y="481" type="line"/>
      <point x="75" y="431"/>
      <point x="46" y="325"/>
      <point x="46" y="240" type="curve" smooth="yes"/>
      <point x="46" y="227" type="line"/>
      <point x="73" y="227" type="line"/>
      <point x="99" y="241"/>
      <point x="111" y="250"/>
      <point x="146" y="250" type="curve" smooth="yes"/>
      <point x="177" y="250"/>
      <point x="193" y="237"/>
    </contour>
  </outline>
</glyph>
<glyph name="pe-hb" format="2">
  <advance width="570"/>
  <unicode hex="05E4"/>
  <anchor x="265" y="0" name="bottom"/>
  <anchor x="8" y="0" name="bottomleft"/>
  <anchor x="358" y="300" name="center"/>
  <anchor x="266" y="536" name="top"/>
  <anchor x="0" y="536" name="topleft"/>
  <outline>
    <contour>
      <point x="49" y="0" type="line"/>
      <point x="363" y="0" type="line" smooth="yes"/>
      <point x="431" y="0"/>
      <point x="505" y="58"/>
      <point x="505" y="192" type="curve" smooth="yes"/>
      <point x="505" y="444" type="line" smooth="yes"/>
      <point x="505" y="528"/>
      <point x="443" y="592"/>
      <point x="344" y="592" type="curve" smooth="yes"/>
      <point x="150" y="592" type="line" smooth="yes"/>
      <point x="123" y="592"/>
      <point x="99" y="610"/>
      <point x="99" y="645" type="curve" smooth="yes"/>
      <point x="99" y="647" type="line"/>
      <point x="72" y="647" type="line"/>
      <point x="61" y="591"/>
      <point x="58" y="577"/>
      <point x="58" y="555" type="curve" smooth="yes"/>
      <point x="58" y="502"/>
      <point x="75" y="483"/>
      <point x="107" y="483" type="curve" smooth="yes"/>
      <point x="345" y="483" type="line" smooth="yes"/>
      <point x="394" y="483"/>
      <point x="451" y="455"/>
      <point x="451" y="376" type="curve" smooth="yes"/>
      <point x="451" y="227" type="line" smooth="yes"/>
      <point x="451" y="150"/>
      <point x="399" y="109"/>
      <point x="316" y="109" type="curve" smooth="yes"/>
      <point x="76" y="109" type="line"/>
    </contour>
    <contour>
      <point x="241" y="242" type="curve"/>
      <point x="248" y="253"/>
      <point x="265" y="274"/>
      <point x="265" y="303" type="curve" smooth="yes"/>
      <point x="265" y="344"/>
      <point x="231" y="361"/>
      <point x="199" y="361" type="curve" smooth="yes"/>
      <point x="171" y="361"/>
      <point x="153" y="349"/>
      <point x="140" y="341" type="curve"/>
      <point x="140" y="347" type="line" smooth="yes"/>
      <point x="140" y="415"/>
      <point x="171" y="463"/>
      <point x="186" y="496" type="curve"/>
      <point x="186" y="499" type="line"/>
      <point x="135" y="499" type="line"/>
      <point x="135" y="481" type="line"/>
      <point x="104" y="436"/>
      <point x="75" y="350"/>
      <point x="75" y="265" type="curve" smooth="yes"/>
      <point x="75" y="252" type="line"/>
      <point x="102" y="252" type="line"/>
      <point x="133" y="266"/>
      <point x="149" y="275"/>
      <point x="175" y="275" type="curve" smooth="yes"/>
      <point x="206" y="275"/>
      <point x="222" y="262"/>
    </contour>
  </outline>
</glyph>
<glyph name="finaltsadi-hb" format="2">
  <advance width="491"/>
  <unicode hex="05E5"/>
  <anchor x="-11" y="0" name="bottomleft"/>
  <anchor x="210" y="399" name="center"/>
  <anchor x="261" y="536" name="top"/>
  <anchor x="1" y="536" name="topleft"/>
  <outline>
    <contour>
      <point x="105" y="-240" type="line"/>
      <point x="120" y="-240" type="line"/>
      <point x="143" y="-230"/>
      <point x="159" y="-219"/>
      <point x="174" y="-204" type="curve"/>
      <point x="162" y="15" type="line" smooth="yes"/>
      <point x="154" y="161"/>
      <point x="270" y="315"/>
      <point x="392" y="448" type="curve" smooth="yes"/>
      <point x="438" y="498" type="line"/>
      <point x="393" y="509" type="line"/>
      <point x="353" y="467" type="line" smooth="yes"/>
      <point x="272" y="382"/>
      <point x="199" y="313"/>
      <point x="154" y="208" type="curve"/>
      <point x="150" y="300" type="line" smooth="yes"/>
      <point x="145" y="409"/>
      <point x="159" y="456"/>
      <point x="180" y="496" type="curve"/>
      <point x="134" y="496" type="line"/>
      <point x="134" y="484" type="line"/>
      <point x="116" y="441"/>
      <point x="105" y="380"/>
      <point x="105" y="299" type="curve" smooth="yes"/>
    </contour>
    <contour>
      <point x="228" y="473" type="line"/>
      <point x="230" y="482"/>
      <point x="236" y="520"/>
      <point x="236" y="538" type="curve" smooth="yes"/>
      <point x="236" y="567"/>
      <point x="221" y="585"/>
      <point x="197" y="588" type="curve" smooth="yes"/>
      <point x="143" y="595" type="line" smooth="yes"/>
      <point x="115" y="599"/>
      <point x="101" y="612"/>
      <point x="101" y="644" type="curve" smooth="yes"/>
      <point x="101" y="647" type="line"/>
      <point x="74" y="647" type="line"/>
      <point x="53" y="595"/>
      <point x="50" y="575"/>
      <point x="50" y="554" type="curve" smooth="yes"/>
      <point x="50" y="503"/>
      <point x="67" y="496"/>
      <point x="100" y="491" type="curve" smooth="yes"/>
    </contour>
    <contour>
      <point x="478" y="473" type="line"/>
      <point x="480" y="482"/>
      <point x="486" y="520"/>
      <point x="486" y="538" type="curve" smooth="yes"/>
      <point x="486" y="567"/>
      <point x="471" y="585"/>
      <point x="447" y="588" type="curve" smooth="yes"/>
      <point x="393" y="595" type="line" smooth="yes"/>
      <point x="365" y="599"/>
      <point x="351" y="612"/>
      <point x="351" y="644" type="curve" smooth="yes"/>
      <point x="351" y="647" type="line"/>
      <point x="324" y="647" type="line"/>
      <point x="303" y="594"/>
      <point x="300" y="575"/>
      <point x="300" y="554" type="curve" smooth="yes"/>
      <point x="300" y="503"/>
      <point x="317" y="496"/>
      <point x="350" y="491" type="curve" smooth="yes"/>
    </contour>
  </outline>
</glyph>
<glyph name="tsadi-hb" format="2">
  <advance width="531"/>
  <unicode hex="05E6"/>
  <anchor x="225" y="0" name="bottom"/>
  <anchor x="10" y="0" name="bottomleft"/>
  <anchor x="139" y="243" name="center"/>
  <anchor x="271" y="536" name="top"/>
  <anchor x="30" y="536" name="topleft"/>
  <outline>
    <contour>
      <point x="30" y="0" type="line"/>
      <point x="418" y="0" type="line"/>
      <point x="435" y="41"/>
      <point x="459" y="86"/>
      <point x="458" y="117" type="curve" smooth="yes"/>
      <point x="456" y="164"/>
      <point x="432" y="192"/>
      <point x="411" y="212" type="curve" smooth="yes"/>
      <point x="297" y="318" type="line" smooth="yes"/>
      <point x="249" y="362"/>
      <point x="229" y="378"/>
      <point x="229" y="433" type="curve" smooth="yes"/>
      <point x="229" y="514" type="line" smooth="yes"/>
      <point x="229" y="569"/>
      <point x="222" y="592"/>
      <point x="174" y="592" type="curve" smooth="yes"/>
      <point x="137" y="592" type="line" smooth="yes"/>
      <point x="110" y="592"/>
      <point x="86" y="610"/>
      <point x="86" y="643" type="curve" smooth="yes"/>
      <point x="86" y="647" type="line"/>
      <point x="59" y="647" type="line"/>
      <point x="48" y="591"/>
      <point x="45" y="574"/>
      <point x="45" y="552" type="curve" smooth="yes"/>
      <point x="45" y="499"/>
      <point x="62" y="483"/>
      <point x="94" y="483" type="curve" smooth="yes"/>
      <point x="150" y="483" type="line" smooth="yes"/>
      <point x="176" y="483"/>
      <point x="176" y="479"/>
      <point x="176" y="453" type="curve" smooth="yes"/>
      <point x="176" y="419" type="line" smooth="yes"/>
      <point x="176" y="365"/>
      <point x="187" y="316"/>
      <point x="227" y="280" type="curve" smooth="yes"/>
      <point x="340" y="178" type="line" smooth="yes"/>
      <point x="360" y="160"/>
      <point x="366" y="151"/>
      <point x="366" y="138" type="curve" smooth="yes"/>
      <point x="366" y="127"/>
      <point x="362" y="120"/>
      <point x="357" y="116" type="curve" smooth="yes"/>
      <point x="351" y="111"/>
      <point x="344" y="109"/>
      <point x="337" y="109" type="curve" smooth="yes"/>
      <point x="50" y="109" type="line"/>
    </contour>
    <contour>
      <point x="351" y="259" type="line"/>
      <point x="351" y="299"/>
      <point x="359" y="340"/>
      <point x="381" y="381" type="curve" smooth="yes"/>
      <point x="437" y="485" type="line"/>
      <point x="396" y="497" type="line"/>
      <point x="337" y="389" type="line" smooth="yes"/>
      <point x="325" y="367"/>
      <point x="308" y="324"/>
      <point x="308" y="302" type="curve"/>
    </contour>
    <contour>
      <point x="493" y="473" type="line"/>
      <point x="495" y="482"/>
      <point x="501" y="520"/>
      <point x="501" y="538" type="curve" smooth="yes"/>
      <point x="501" y="567"/>
      <point x="486" y="585"/>
      <point x="462" y="588" type="curve" smooth="yes"/>
      <point x="408" y="595" type="line" smooth="yes"/>
      <point x="380" y="599"/>
      <point x="366" y="612"/>
      <point x="366" y="643" type="curve" smooth="yes"/>
      <point x="366" y="647" type="line"/>
      <point x="339" y="647" type="line"/>
      <point x="319" y="589"/>
      <point x="315" y="576"/>
      <point x="315" y="552" type="curve" smooth="yes"/>
      <point x="315" y="504"/>
      <point x="332" y="496"/>
      <point x="365" y="491" type="curve" smooth="yes"/>
    </contour>
  </outline>
</glyph>
<glyph name="qof-hb" format="2">
  <advance width="569"/>
  <unicode hex="05E7"/>
  <anchor x="320" y="0" name="bottom"/>
  <anchor x="13" y="0" name="bottomleft"/>
  <anchor x="290" y="300" name="center"/>
  <anchor x="304" y="536" name="top"/>
  <anchor x="35" y="536" name="topleft"/>
  <outline>
    <contour>
      <point x="316" y="-7" type="curve" smooth="yes"/>
      <point x="339" y="-7"/>
      <point x="351" y="4"/>
      <point x="351" y="24" type="curve" smooth="yes"/>
      <point x="351" y="56" type="line" smooth="yes"/>
      <point x="351" y="87"/>
      <point x="352" y="108"/>
      <point x="371" y="126" type="curve" smooth="yes"/>
      <point x="469" y="217" type="line" smooth="yes"/>
      <point x="504" y="250"/>
      <point x="514" y="274"/>
      <point x="514" y="347" type="curve" smooth="yes"/>
      <point x="514" y="488" type="line" smooth="yes"/>
      <point x="514" y="557"/>
      <point x="479" y="592"/>
      <point x="413" y="592" type="curve" smooth="yes"/>
      <point x="167" y="592" type="line" smooth="yes"/>
      <point x="140" y="592"/>
      <point x="116" y="611"/>
      <point x="116" y="644" type="curve" smooth="yes"/>
      <point x="116" y="647" type="line"/>
      <point x="89" y="647" type="line"/>
      <point x="78" y="591"/>
      <point x="75" y="577"/>
      <point x="75" y="555" type="curve" smooth="yes"/>
      <point x="75" y="502"/>
      <point x="92" y="483"/>
      <point x="124" y="483" type="curve" smooth="yes"/>
      <point x="408" y="483" type="line" smooth="yes"/>
      <point x="443" y="483"/>
      <point x="460" y="469"/>
      <point x="460" y="437" type="curve" smooth="yes"/>
      <point x="460" y="338" type="line" smooth="yes"/>
      <point x="460" y="281"/>
      <point x="450" y="272"/>
      <point x="422" y="247" type="curve" smooth="yes"/>
      <point x="315" y="149" type="line" smooth="yes"/>
      <point x="288" y="124"/>
      <point x="282" y="103"/>
      <point x="282" y="56" type="curve" smooth="yes"/>
      <point x="282" y="24" type="line" smooth="yes"/>
      <point x="282" y="4"/>
      <point x="294" y="-7"/>
    </contour>
    <contour>
      <point x="86" y="-240" type="line"/>
      <point x="101" y="-240" type="line"/>
      <point x="124" y="-230"/>
      <point x="140" y="-219"/>
      <point x="155" y="-204" type="curve"/>
      <point x="140.964" y="347.45" type="line"/>
      <point x="135" y="354" type="line"/>
      <point x="116" y="346" type="line" smooth="yes"/>
      <point x="94" y="337"/>
      <point x="86" y="317"/>
      <point x="86" y="273" type="curve" smooth="yes"/>
    </contour>
  </outline>
</glyph>
<glyph name="resh-hb" format="2">
  <advance width="484"/>
  <unicode hex="05E8"/>
  <anchor x="391" y="0" name="bottom"/>
  <anchor x="194" y="0" name="bottomleft"/>
  <anchor x="181" y="300" name="center"/>
  <anchor x="195" y="536" name="top"/>
  <anchor x="0" y="536" name="topleft"/>
  <outline>
    <contour>
      <point x="350" y="-7" type="line"/>
      <point x="365" y="-7" type="line"/>
      <point x="388" y="3"/>
      <point x="404" y="14"/>
      <point x="419" y="29" type="curve"/>
      <point x="406" y="454" type="line" smooth="yes"/>
      <point x="403" y="561"/>
      <point x="351" y="592"/>
      <point x="281" y="592" type="curve" smooth="yes"/>
      <point x="104" y="592" type="line" smooth="yes"/>
      <point x="77" y="592"/>
      <point x="53" y="611"/>
      <point x="53" y="644" type="curve" smooth="yes"/>
      <point x="53" y="647" type="line"/>
      <point x="26" y="647" type="line"/>
      <point x="15" y="591"/>
      <point x="12" y="577"/>
      <point x="12" y="555" type="curve" smooth="yes"/>
      <point x="12" y="502"/>
      <point x="29" y="483"/>
      <point x="61" y="483" type="curve" smooth="yes"/>
      <point x="280" y="483" type="line" smooth="yes"/>
      <point x="338" y="483"/>
      <point x="350" y="453"/>
      <point x="350" y="417" type="curve" smooth="yes"/>
    </contour>
  </outline>
</glyph>
<glyph name="shin-hb" format="2">
  <advance width="727"/>
  <unicode hex="05E9"/>
  <anchor x="317" y="0" name="bottom"/>
  <anchor x="78" y="0" name="bottomleft"/>
  <anchor x="489" y="312" name="center"/>
  <anchor x="163" y="536" name="top"/>
  <anchor x="4" y="536" name="topleft"/>
  <anchor x="628" y="536" name="topright"/>
  <outline>
    <contour>
      <point x="117" y="0" type="curve"/>
      <point x="439" y="0" type="line" smooth="yes"/>
      <point x="639" y="0"/>
      <point x="678" y="373"/>
      <point x="683" y="473" type="curve" smooth="yes"/>
      <point x="686" y="534" type="line" smooth="yes"/>
      <point x="688" y="572"/>
      <point x="678" y="591"/>
      <point x="650" y="593" type="curve" smooth="yes"/>
      <point x="612" y="596" type="line" smooth="yes"/>
      <point x="579" y="599"/>
      <point x="575" y="624"/>
      <point x="575" y="644" type="curve" smooth="yes"/>
      <point x="575" y="647" type="line"/>
      <point x="548" y="647" type="line"/>
      <point x="528" y="589"/>
      <point x="524" y="573"/>
      <point x="524" y="549" type="curve" smooth="yes"/>
      <point x="524" y="504"/>
      <point x="538" y="490"/>
      <point x="574" y="487" type="curve" smooth="yes"/>
      <point x="633" y="482" type="line"/>
      <point x="632" y="469" type="line" smooth="yes"/>
      <point x="626" y="397"/>
      <point x="583" y="109"/>
      <point x="438" y="109" type="curve" smooth="yes"/>
      <point x="344" y="109" type="line"/>
      <point x="407" y="480" type="line"/>
      <point x="454" y="473" type="line"/>
      <point x="458" y="491"/>
      <point x="464" y="523"/>
      <point x="464" y="550" type="curve" smooth="yes"/>
      <point x="464" y="562"/>
      <point x="463" y="582"/>
      <point x="425" y="588" type="curve" smooth="yes"/>
      <point x="381" y="595" type="line" smooth="yes"/>
      <point x="353" y="600"/>
      <point x="339" y="612"/>
      <point x="339" y="644" type="curve" smooth="yes"/>
      <point x="339" y="647" type="line"/>
      <point x="312" y="647" type="line"/>
      <point x="296" y="606"/>
      <point x="288" y="577"/>
      <point x="288" y="548" type="curve" smooth="yes"/>
      <point x="288" y="506"/>
      <point x="305" y="496"/>
      <point x="338" y="491" type="curve" smooth="yes"/>
      <point x="360" y="488" type="line"/>
      <point x="296" y="109" type="line"/>
      <point x="173" y="109" type="line"/>
      <point x="146" y="202"/>
      <point x="141" y="262"/>
      <point x="141" y="303" type="curve" smooth="yes"/>
      <point x="141" y="351"/>
      <point x="148" y="420"/>
      <point x="161" y="482" type="curve"/>
      <point x="216" y="473" type="line"/>
      <point x="220" y="491"/>
      <point x="226" y="523"/>
      <point x="226" y="550" type="curve" smooth="yes"/>
      <point x="226" y="562"/>
      <point x="225" y="582"/>
      <point x="187" y="588" type="curve" smooth="yes"/>
      <point x="143" y="595" type="line" smooth="yes"/>
      <point x="115" y="600"/>
      <point x="101" y="612"/>
      <point x="101" y="644" type="curve" smooth="yes"/>
      <point x="101" y="647" type="line"/>
      <point x="74" y="647" type="line"/>
      <point x="56" y="602"/>
      <point x="50" y="574"/>
      <point x="50" y="549" type="curve" smooth="yes"/>
      <point x="50" y="506"/>
      <point x="67" y="496"/>
      <point x="100" y="491" type="curve" smooth="yes"/>
      <point x="119" y="488" type="line"/>
      <point x="100" y="426"/>
      <point x="81" y="345"/>
      <point x="81" y="287" type="curve" smooth="yes"/>
      <point x="81" y="239"/>
      <point x="94" y="134"/>
    </contour>
  </outline>
</glyph>
<glyph name="tav-hb" format="2">
  <advance width="606"/>
  <unicode hex="05EA"/>
  <anchor x="335" y="0" name="bottom"/>
  <anchor x="35" y="0" name="bottomleft"/>
  <anchor x="322" y="300" name="center"/>
  <anchor x="307" y="536" name="top"/>
  <anchor x="39" y="536" name="topleft"/>
  <outline>
    <contour>
      <point x="472" y="-7" type="line"/>
      <point x="487" y="-7" type="line"/>
      <point x="510" y="3"/>
      <point x="526" y="14"/>
      <point x="541" y="29" type="curve"/>
      <point x="528" y="454" type="line" smooth="yes"/>
      <point x="525" y="561"/>
      <point x="473" y="592"/>
      <point x="403" y="592" type="curve" smooth="yes"/>
      <point x="164" y="592" type="line" smooth="yes"/>
      <point x="137" y="592"/>
      <point x="113" y="610"/>
      <point x="113" y="643" type="curve" smooth="yes"/>
      <point x="113" y="647" type="line"/>
      <point x="86" y="647" type="line"/>
      <point x="75" y="591"/>
      <point x="72" y="577"/>
      <point x="72" y="555" type="curve" smooth="yes"/>
      <point x="72" y="502"/>
      <point x="89" y="483"/>
      <point x="121" y="483" type="curve" smooth="yes"/>
      <point x="402" y="483" type="line" smooth="yes"/>
      <point x="460" y="483"/>
      <point x="472" y="454"/>
      <point x="472" y="417" type="curve" smooth="yes"/>
    </contour>
    <contour>
      <point x="25" y="0" type="line"/>
      <point x="187" y="0" type="line"/>
      <point x="194" y="18"/>
      <point x="198" y="32"/>
      <point x="198" y="55" type="curve" smooth="yes"/>
      <point x="198" y="113"/>
      <point x="171" y="231"/>
      <point x="171" y="303" type="curve" smooth="yes"/>
      <point x="171" y="368"/>
      <point x="193" y="462"/>
      <point x="196" y="483" type="curve"/>
      <point x="196" y="508" type="line"/>
      <point x="157" y="508" type="line"/>
      <point x="157" y="481" type="line"/>
      <point x="128" y="386"/>
      <point x="114" y="329"/>
      <point x="117" y="268" type="curve" smooth="yes"/>
      <point x="123" y="141" type="line" smooth="yes"/>
      <point x="124" y="116"/>
      <point x="116" y="109"/>
      <point x="89" y="109" type="curve" smooth="yes"/>
      <point x="34" y="109" type="line"/>
    </contour>
  </outline>
</glyph>
<glyph name="vavvav-hb" format="2">
  <advance width="652"/>
  <unicode hex="05F0"/>
  <note>
vavvav
</note>
  <anchor x="215" y="0" name="bottom"/>
  <anchor x="14" y="0" name="bottomleft"/>
  <anchor x="326" y="0" name="caret_2"/>
  <anchor x="103" y="300" name="center"/>
  <anchor x="153" y="536" name="top"/>
  <anchor x="-1" y="536" name="topleft"/>
  <outline>
    <contour>
      <point x="508" y="-7" type="line"/>
      <point x="523" y="-7" type="line"/>
      <point x="550" y="4"/>
      <point x="562" y="14"/>
      <point x="577" y="30" type="curve"/>
      <point x="564" y="535" type="line" smooth="yes"/>
      <point x="563" y="577"/>
      <point x="551" y="592"/>
      <point x="517" y="592" type="curve" smooth="yes"/>
      <point x="460" y="592" type="line" smooth="yes"/>
      <point x="425" y="592"/>
      <point x="407" y="612"/>
      <point x="407" y="644" type="curve" smooth="yes"/>
      <point x="407" y="647" type="line"/>
      <point x="380" y="647" type="line"/>
      <point x="369" y="597"/>
      <point x="366" y="577"/>
      <point x="366" y="555" type="curve" smooth="yes"/>
      <point x="366" y="503"/>
      <point x="383" y="483"/>
      <point x="415" y="483" type="curve" smooth="yes"/>
      <point x="481" y="483" type="line" smooth="yes"/>
      <point x="504" y="483"/>
      <point x="508" y="473"/>
      <point x="508" y="447" type="curve" smooth="yes"/>
    </contour>
    <contour>
      <point x="182" y="-7" type="line"/>
      <point x="197" y="-7" type="line"/>
      <point x="224" y="4"/>
      <point x="236" y="14"/>
      <point x="251" y="30" type="curve"/>
      <point x="238" y="535" type="line" smooth="yes"/>
      <point x="237" y="577"/>
      <point x="225" y="592"/>
      <point x="191" y="592" type="curve" smooth="yes"/>
      <point x="134" y="592" type="line" smooth="yes"/>
      <point x="99" y="592"/>
      <point x="81" y="612"/>
      <point x="81" y="644" type="curve" smooth="yes"/>
      <point x="81" y="647" type="line"/>
      <point x="54" y="647" type="line"/>
      <point x="43" y="597"/>
      <point x="40" y="577"/>
      <point x="40" y="555" type="curve" smooth="yes"/>
      <point x="40" y="503"/>
      <point x="57" y="483"/>
      <point x="89" y="483" type="curve" smooth="yes"/>
      <point x="155" y="483" type="line" smooth="yes"/>
      <point x="178" y="483"/>
      <point x="182" y="473"/>
      <point x="182" y="447" type="curve" smooth="yes"/>
    </contour>
  </outline>
</glyph>
<glyph name="geresh-hb" format="2">
  <advance width="228"/>
  <unicode hex="05F3"/>
  <outline>
    <contour>
      <point x="39" y="379" type="line"/>
      <point x="127" y="409"/>
      <point x="172" y="485"/>
      <point x="172" y="560" type="curve" smooth="yes"/>
      <point x="172" y="616"/>
      <point x="136" y="647"/>
      <point x="95" y="647" type="curve" smooth="yes"/>
      <point x="58" y="647"/>
      <point x="30" y="626"/>
      <point x="30" y="588" type="curve" smooth="yes"/>
      <point x="30" y="527"/>
      <point x="103" y="536"/>
      <point x="103" y="496" type="curve" smooth="yes"/>
      <point x="103" y="466"/>
      <point x="77" y="436"/>
      <point x="39" y="423" type="curve"/>
    </contour>
  </outline>
</glyph>
<glyph name="gershayim-hb" format="2">
  <advance width="428"/>
  <unicode hex="05F4"/>
  <outline>
    <contour>
      <point x="39" y="379" type="line"/>
      <point x="127" y="409"/>
      <point x="172" y="485"/>
      <point x="172" y="560" type="curve" smooth="yes"/>
      <point x="172" y="616"/>
      <point x="136" y="647"/>
      <point x="95" y="647" type="curve" smooth="yes"/>
      <point x="58" y="647"/>
      <point x="30" y="626"/>
      <point x="30" y="588" type="curve" smooth="yes"/>
      <point x="30" y="527"/>
      <point x="103" y="536"/>
      <point x="103" y="496" type="curve" smooth="yes"/>
      <point x="103" y="466"/>
      <point x="77" y="436"/>
      <point x="39" y="423" type="curve"/>
    </contour>
    <contour>
      <point x="239" y="379" type="line"/>
      <point x="327" y="409"/>
      <point x="372" y="485"/>
      <point x="372" y="560" type="curve" smooth="yes"/>
      <point x="372" y="616"/>
      <point x="336" y="647"/>
      <point x="295" y="647" type="curve" smooth="yes"/>
      <point x="258" y="647"/>
      <point x="230" y="626"/>
      <point x="230" y="588" type="curve" smooth="yes"/>
      <point x="230" y="527"/>
      <point x="303" y="536"/>
      <point x="303" y="496" type="curve" smooth="yes"/>
      <point x="303" y="466"/>
      <point x="277" y="436"/>
      <point x="239" y="423" type="curve"/>
    </contour>
  </outline>
</glyph>
<glyph name="sheqel" format="2">
  <advance width="790"/>
  <unicode hex="20AA"/>
  <note>
sheqel
</note>
  <outline>
    <contour>
      <point x="313" y="0" type="curve"/>
      <point x="522" y="0" type="line" smooth="yes"/>
      <point x="692" y="0"/>
      <point x="711" y="220"/>
      <point x="718" y="315" type="curve" smooth="yes"/>
      <point x="732" y="540" type="line" smooth="yes"/>
      <point x="733" y="562"/>
      <point x="730" y="587"/>
      <point x="696" y="593" type="curve" smooth="yes"/>
      <point x="678" y="596" type="line" smooth="yes"/>
      <point x="653" y="600"/>
      <point x="644" y="616"/>
      <point x="644" y="643" type="curve" smooth="yes"/>
      <point x="644" y="647" type="line"/>
      <point x="614" y="647" type="line"/>
      <point x="594" y="589"/>
      <point x="590" y="573"/>
      <point x="590" y="549" type="curve" smooth="yes"/>
      <point x="590" y="504"/>
      <point x="604" y="491"/>
      <point x="640" y="487" type="curve" smooth="yes"/>
      <point x="679" y="483" type="line"/>
      <point x="678" y="469" type="line" smooth="yes"/>
      <point x="670" y="364"/>
      <point x="673" y="109"/>
      <point x="534" y="109" type="curve" smooth="yes"/>
      <point x="369" y="109" type="line"/>
      <point x="340" y="209"/>
      <point x="327" y="308"/>
      <point x="339" y="417" type="curve"/>
      <point x="297" y="417" type="line"/>
      <point x="283" y="375"/>
      <point x="277" y="318"/>
      <point x="277" y="269" type="curve" smooth="yes"/>
      <point x="277" y="209"/>
      <point x="286" y="158"/>
    </contour>
    <contour>
      <point x="110" y="-7" type="line"/>
      <point x="125" y="-7" type="line"/>
      <point x="148" y="3"/>
      <point x="164" y="14"/>
      <point x="179" y="29" type="curve"/>
      <point x="169" y="483" type="line"/>
      <point x="470" y="483" type="line"/>
      <point x="470" y="480" type="line"/>
      <point x="463" y="447"/>
      <point x="451" y="388"/>
      <point x="451" y="299" type="curve" smooth="yes"/>
      <point x="451" y="184" type="line"/>
      <point x="466" y="184" type="line"/>
      <point x="489" y="194"/>
      <point x="505" y="205"/>
      <point x="520" y="220" type="curve"/>
      <point x="507" y="483" type="line"/>
      <point x="533" y="492" type="line"/>
      <point x="533" y="559" type="line" smooth="yes"/>
      <point x="533" y="584"/>
      <point x="525" y="592"/>
      <point x="503" y="592" type="curve" smooth="yes"/>
      <point x="157" y="592" type="line" smooth="yes"/>
      <point x="124" y="592"/>
      <point x="104" y="609"/>
      <point x="104" y="644" type="curve" smooth="yes"/>
      <point x="104" y="647" type="line"/>
      <point x="77" y="647" type="line"/>
      <point x="66" y="591"/>
      <point x="63" y="577"/>
      <point x="63" y="555" type="curve" smooth="yes"/>
      <point x="63" y="503"/>
      <point x="80" y="483"/>
      <point x="112" y="483" type="curve" smooth="yes"/>
      <point x="129" y="483" type="line"/>
      <point x="129" y="480" type="line"/>
      <point x="122" y="447"/>
      <point x="110" y="388"/>
      <point x="110" y="299" type="curve" smooth="yes"/>
    </contour>
  </outline>
</glyph>
<glyph name="judeospanishvarika-hb" format="2">
  <unicode hex="FB1E"/>
  <note>
uniFB1E
</note>
  <anchor x="155" y="536" name="_top"/>
  <outline>
    <contour>
      <point x="261" y="780" type="curve"/>
      <point x="210" y="777" type="line"/>
      <point x="210" y="741"/>
      <point x="190" y="721"/>
      <point x="155" y="721" type="curve" smooth="yes"/>
      <point x="120" y="721"/>
      <point x="100" y="748"/>
      <point x="100" y="780" type="curve"/>
      <point x="50" y="777" type="line"/>
      <point x="50" y="712"/>
      <point x="89" y="668"/>
      <point x="155" y="668" type="curve" smooth="yes"/>
      <point x="222" y="668"/>
      <point x="261" y="715"/>
    </contour>
  </outline>
</glyph>
<glyph name="ayinaltone-hb" format="2">
  <advance width="545"/>
  <unicode hex="FB20"/>
  <note>
alternativeayin
</note>
  <anchor x="218" y="0" name="bottom"/>
  <anchor x="1" y="0" name="bottomleft"/>
  <anchor x="273" y="536" name="top"/>
  <anchor x="2" y="536" name="topleft"/>
  <outline>
    <contour>
      <point x="25" y="0" type="line"/>
      <point x="243" y="0" type="line" smooth="yes"/>
      <point x="351" y="0"/>
      <point x="423" y="126"/>
      <point x="451" y="256" type="curve" smooth="yes"/>
      <point x="503" y="500" type="line" smooth="yes"/>
      <point x="516" y="559"/>
      <point x="500" y="578"/>
      <point x="471" y="583" type="curve" smooth="yes"/>
      <point x="406" y="593" type="line" smooth="yes"/>
      <point x="379" y="597"/>
      <point x="367" y="611"/>
      <point x="367" y="642" type="curve" smooth="yes"/>
      <point x="367" y="647" type="line"/>
      <point x="337" y="647" type="line"/>
      <point x="317" y="589"/>
      <point x="313" y="576"/>
      <point x="313" y="552" type="curve" smooth="yes"/>
      <point x="313" y="504"/>
      <point x="330" y="495"/>
      <point x="363" y="490" type="curve" smooth="yes"/>
      <point x="448" y="477" type="line"/>
      <point x="423" y="364" type="line" smooth="yes"/>
      <point x="396" y="242"/>
      <point x="348" y="109"/>
      <point x="242" y="109" type="curve" smooth="yes"/>
      <point x="34" y="109" type="line"/>
    </contour>
    <contour>
      <point x="190" y="75" type="line"/>
      <point x="258" y="94" type="line"/>
      <point x="179" y="342" type="line" smooth="yes"/>
      <point x="163" y="392"/>
      <point x="149" y="456"/>
      <point x="155" y="501" type="curve"/>
      <point x="119" y="502" type="line"/>
      <point x="108" y="439"/>
      <point x="116" y="367"/>
      <point x="135" y="292" type="curve" smooth="yes"/>
    </contour>
    <contour>
      <point x="225" y="469" type="line"/>
      <point x="231" y="503"/>
      <point x="233" y="517"/>
      <point x="233" y="530" type="curve" smooth="yes"/>
      <point x="233" y="563"/>
      <point x="221" y="580"/>
      <point x="194" y="584" type="curve" smooth="yes"/>
      <point x="124" y="593" type="line" smooth="yes"/>
      <point x="96" y="597"/>
      <point x="85" y="612"/>
      <point x="85" y="643" type="curve" smooth="yes"/>
      <point x="85" y="647" type="line"/>
      <point x="55" y="647" type="line"/>
      <point x="35" y="589"/>
      <point x="31" y="576"/>
      <point x="31" y="552" type="curve" smooth="yes"/>
      <point x="31" y="504"/>
      <point x="48" y="495"/>
      <point x="81" y="490" type="curve" smooth="yes"/>
    </contour>
  </outline>
</glyph>
<glyph name="widealef-hb" format="2">
  <advance width="890"/>
  <unicode hex="FB21"/>
  <note>
alefwide
</note>
  <outline>
    <contour>
      <point x="787" y="-10" type="curve"/>
      <point x="801" y="-10" type="line"/>
      <point x="817" y="4"/>
      <point x="836" y="21"/>
      <point x="836" y="64" type="curve" smooth="yes"/>
      <point x="836" y="90"/>
      <point x="826" y="132"/>
      <point x="789" y="155" type="curve" smooth="yes"/>
      <point x="145" y="554" type="line" smooth="yes"/>
      <point x="100" y="582"/>
      <point x="101" y="614"/>
      <point x="101" y="643" type="curve" smooth="yes"/>
      <point x="101" y="647" type="line"/>
      <point x="77" y="647" type="line"/>
      <point x="65" y="617"/>
      <point x="52" y="592"/>
      <point x="52" y="553" type="curve" smooth="yes"/>
      <point x="52" y="525"/>
      <point x="57" y="485"/>
      <point x="100" y="458" type="curve" smooth="yes"/>
      <point x="750" y="52" type="line" smooth="yes"/>
      <point x="784" y="31"/>
      <point x="785" y="7"/>
    </contour>
    <contour>
      <point x="53" y="0" type="line"/>
      <point x="183" y="0" type="line"/>
      <point x="201" y="38"/>
      <point x="200" y="77"/>
      <point x="183" y="115" type="curve" smooth="yes"/>
      <point x="145" y="199" type="line" smooth="yes"/>
      <point x="122" y="249"/>
      <point x="126" y="285"/>
      <point x="150" y="329" type="curve" smooth="yes"/>
      <point x="192" y="408" type="line"/>
      <point x="162" y="430" type="line"/>
      <point x="96" y="323" type="line" smooth="yes"/>
      <point x="63" y="270"/>
      <point x="63" y="220"/>
      <point x="78" y="155" type="curve" smooth="yes"/>
      <point x="95" y="82" type="line" smooth="yes"/>
      <point x="101" y="57"/>
      <point x="92" y="46"/>
      <point x="62" y="46" type="curve" smooth="yes"/>
      <point x="53" y="46" type="line"/>
    </contour>
    <contour>
      <point x="682" y="208" type="line"/>
      <point x="682" y="248"/>
      <point x="691" y="287"/>
      <point x="712" y="332" type="curve" smooth="yes"/>
      <point x="784" y="488" type="line"/>
      <point x="744" y="500" type="line"/>
      <point x="662" y="335" type="line" smooth="yes"/>
      <point x="649" y="309"/>
      <point x="633" y="271"/>
      <point x="633" y="250" type="curve"/>
    </contour>
    <contour>
      <point x="842" y="468" type="line"/>
      <point x="848" y="504"/>
      <point x="850" y="516"/>
      <point x="850" y="530" type="curve" smooth="yes"/>
      <point x="850" y="563"/>
      <point x="838" y="580"/>
      <point x="811" y="584" type="curve" smooth="yes"/>
      <point x="756" y="593" type="line" smooth="yes"/>
      <point x="729" y="597"/>
      <point x="714" y="613"/>
      <point x="714" y="643" type="curve" smooth="yes"/>
      <point x="714" y="647" type="line"/>
      <point x="687" y="647" type="line"/>
      <point x="670" y="608"/>
      <point x="663" y="576"/>
      <point x="663" y="553" type="curve" smooth="yes"/>
      <point x="663" y="503"/>
      <point x="680" y="494"/>
      <point x="713" y="489" type="curve" smooth="yes"/>
    </contour>
  </outline>
</glyph>
<glyph name="widedalet-hb" format="2">
  <advance width="792"/>
  <unicode hex="FB22"/>
  <note>
daletwide
</note>
  <outline>
    <contour>
      <point x="620" y="-7" type="line"/>
      <point x="635" y="-7" type="line"/>
      <point x="658" y="3"/>
      <point x="674" y="14"/>
      <point x="689" y="29" type="curve"/>
      <point x="675" y="483" type="line"/>
      <point x="742" y="483" type="line"/>
      <point x="742" y="559" type="line" smooth="yes"/>
      <point x="742" y="584"/>
      <point x="734" y="592"/>
      <point x="712" y="592" type="curve" smooth="yes"/>
      <point x="106" y="592" type="line" smooth="yes"/>
      <point x="72" y="592"/>
      <point x="53" y="608"/>
      <point x="53" y="643" type="curve" smooth="yes"/>
      <point x="53" y="647" type="line"/>
      <point x="26" y="647" type="line"/>
      <point x="15" y="591"/>
      <point x="12" y="578"/>
      <point x="12" y="552" type="curve" smooth="yes"/>
      <point x="12" y="503"/>
      <point x="30" y="483"/>
      <point x="61" y="483" type="curve" smooth="yes"/>
      <point x="639" y="483" type="line"/>
      <point x="639" y="482" type="line"/>
      <point x="632" y="449"/>
      <point x="620" y="393"/>
      <point x="620" y="304" type="curve" smooth="yes"/>
    </contour>
  </outline>
</glyph>
<glyph name="widehe-hb" format="2">
  <advance width="905"/>
  <unicode hex="FB23"/>
  <note>
hewide
</note>
  <outline>
    <contour>
      <point x="748" y="-7" type="line"/>
      <point x="763" y="-7" type="line"/>
      <point x="786" y="3"/>
      <point x="802" y="14"/>
      <point x="817" y="29" type="curve"/>
      <point x="804" y="483" type="line"/>
      <point x="830" y="492" type="line"/>
      <point x="830" y="559" type="line" smooth="yes"/>
      <point x="830" y="584"/>
      <point x="822" y="592"/>
      <point x="800" y="592" type="curve" smooth="yes"/>
      <point x="154" y="592" type="line" smooth="yes"/>
      <point x="121" y="592"/>
      <point x="101" y="607"/>
      <point x="101" y="643" type="curve" smooth="yes"/>
      <point x="101" y="647" type="line"/>
      <point x="74" y="647" type="line"/>
      <point x="63" y="591"/>
      <point x="60" y="578"/>
      <point x="60" y="552" type="curve" smooth="yes"/>
      <point x="60" y="503"/>
      <point x="78" y="483"/>
      <point x="109" y="483" type="curve" smooth="yes"/>
      <point x="767" y="483" type="line"/>
      <point x="767" y="480" type="line"/>
      <point x="760" y="447"/>
      <point x="748" y="391"/>
      <point x="748" y="300" type="curve" smooth="yes"/>
    </contour>
    <contour>
      <point x="78" y="-7" type="line"/>
      <point x="93" y="-7" type="line"/>
      <point x="116" y="3"/>
      <point x="132" y="14"/>
      <point x="147" y="29" type="curve"/>
      <point x="145.995" y="336.419" type="line"/>
      <point x="140" y="343" type="line"/>
      <point x="108" y="334" type="line" smooth="yes"/>
      <point x="87" y="328"/>
      <point x="78" y="306.743"/>
      <point x="78" y="262" type="curve" smooth="yes"/>
    </contour>
  </outline>
</glyph>
<glyph name="widekaf-hb" format="2">
  <advance width="850"/>
  <unicode hex="FB24"/>
  <note>
kafwide
</note>
  <outline>
    <contour>
      <point x="49" y="0" type="line"/>
      <point x="643" y="0" type="line" smooth="yes"/>
      <point x="711" y="0"/>
      <point x="785" y="58"/>
      <point x="785" y="192" type="curve" smooth="yes"/>
      <point x="785" y="444" type="line" smooth="yes"/>
      <point x="785" y="528"/>
      <point x="723" y="592"/>
      <point x="624" y="592" type="curve" smooth="yes"/>
      <point x="150" y="592" type="line" smooth="yes"/>
      <point x="123" y="592"/>
      <point x="99" y="611"/>
      <point x="99" y="644" type="curve" smooth="yes"/>
      <point x="99" y="647" type="line"/>
      <point x="72" y="647" type="line"/>
      <point x="61" y="591"/>
      <point x="58" y="578"/>
      <point x="58" y="552" type="curve" smooth="yes"/>
      <point x="58" y="503"/>
      <point x="76" y="483"/>
      <point x="107" y="483" type="curve" smooth="yes"/>
      <point x="625" y="483" type="line" smooth="yes"/>
      <point x="674" y="483"/>
      <point x="731" y="454"/>
      <point x="731" y="376" type="curve" smooth="yes"/>
      <point x="731" y="227" type="line" smooth="yes"/>
      <point x="731" y="150"/>
      <point x="679" y="109"/>
      <point x="596" y="109" type="curve" smooth="yes"/>
      <point x="76" y="109" type="line"/>
    </contour>
  </outline>
</glyph>
<glyph name="widelamed-hb" format="2">
  <advance width="803"/>
  <unicode hex="FB25"/>
  <note>
lamedwide
</note>
  <outline>
    <contour>
      <point x="515" y="-7" type="curve" smooth="yes"/>
      <point x="541" y="-7"/>
      <point x="551" y="8"/>
      <point x="551" y="41" type="curve" smooth="yes"/>
      <point x="551" y="67" type="line" smooth="yes"/>
      <point x="551" y="94"/>
      <point x="556" y="108"/>
      <point x="571" y="125" type="curve" smooth="yes"/>
      <point x="713" y="281" type="line" smooth="yes"/>
      <point x="739" y="310"/>
      <point x="746" y="333"/>
      <point x="746" y="359" type="curve" smooth="yes"/>
      <point x="747" y="493" type="line" smooth="yes"/>
      <point x="747" y="538"/>
      <point x="738" y="592"/>
      <point x="660" y="592" type="curve" smooth="yes"/>
      <point x="135" y="592" type="line" smooth="yes"/>
      <point x="102" y="592"/>
      <point x="87" y="608"/>
      <point x="96" y="643" type="curve" smooth="yes"/>
      <point x="126" y="758" type="line" smooth="yes"/>
      <point x="140" y="810"/>
      <point x="131" y="830"/>
      <point x="105" y="834" type="curve" smooth="yes"/>
      <point x="70" y="839" type="line" smooth="yes"/>
      <point x="57" y="841"/>
      <point x="48" y="850"/>
      <point x="48" y="871" type="curve" smooth="yes"/>
      <point x="48" y="873" type="line"/>
      <point x="28" y="873" type="line"/>
      <point x="24" y="862"/>
      <point x="12" y="828"/>
      <point x="12" y="810" type="curve" smooth="yes"/>
      <point x="12" y="790"/>
      <point x="14" y="772"/>
      <point x="40" y="769" type="curve" smooth="yes"/>
      <point x="70" y="765" type="line" smooth="yes"/>
      <point x="82" y="763"/>
      <point x="86" y="757"/>
      <point x="82" y="743" type="curve" smooth="yes"/>
      <point x="70" y="703"/>
      <point x="35" y="592"/>
      <point x="35" y="548" type="curve" smooth="yes"/>
      <point x="35" y="507"/>
      <point x="51" y="483"/>
      <point x="84" y="483" type="curve" smooth="yes"/>
      <point x="647" y="483" type="line" smooth="yes"/>
      <point x="676" y="483"/>
      <point x="693" y="467"/>
      <point x="693" y="437" type="curve" smooth="yes"/>
      <point x="693" y="358" type="line" smooth="yes"/>
      <point x="693" y="342"/>
      <point x="687" y="332"/>
      <point x="670" y="313" type="curve" smooth="yes"/>
      <point x="523" y="150" type="line" smooth="yes"/>
      <point x="494" y="118"/>
      <point x="482" y="97"/>
      <point x="482" y="65" type="curve" smooth="yes"/>
      <point x="482" y="41" type="line" smooth="yes"/>
      <point x="482" y="5"/>
      <point x="491" y="-7"/>
    </contour>
  </outline>
</glyph>
<glyph name="finalwidemem-hb" format="2">
  <advance width="882"/>
  <unicode hex="FB26"/>
  <note>
finalmemwide
</note>
  <outline>
    <contour>
      <point x="107" y="0" type="curve" smooth="yes"/>
      <point x="736" y="0" type="line" smooth="yes"/>
      <point x="781" y="0"/>
      <point x="807" y="28"/>
      <point x="807" y="75" type="curve" smooth="yes"/>
      <point x="807" y="443" type="line" smooth="yes"/>
      <point x="807" y="527"/>
      <point x="787" y="592"/>
      <point x="686" y="592" type="curve" smooth="yes"/>
      <point x="155" y="592" type="line" smooth="yes"/>
      <point x="123" y="592"/>
      <point x="103" y="610"/>
      <point x="103" y="644" type="curve" smooth="yes"/>
      <point x="103" y="647" type="line"/>
      <point x="76" y="647" type="line"/>
      <point x="65" y="591"/>
      <point x="62" y="577"/>
      <point x="62" y="555" type="curve" smooth="yes"/>
      <point x="62" y="504"/>
      <point x="78" y="483"/>
      <point x="109" y="483" type="curve"/>
      <point x="662" y="483" type="line" smooth="yes"/>
      <point x="712" y="483"/>
      <point x="753" y="451"/>
      <point x="753" y="374" type="curve" smooth="yes"/>
      <point x="753" y="178" type="line" smooth="yes"/>
      <point x="753" y="160"/>
      <point x="746" y="109"/>
      <point x="707" y="109" type="curve" smooth="yes"/>
      <point x="109" y="109" type="line"/>
      <point x="109" y="332" type="line" smooth="yes"/>
      <point x="109" y="400"/>
      <point x="138" y="463"/>
      <point x="168" y="483" type="curve"/>
      <point x="168" y="504" type="line"/>
      <point x="112" y="504" type="line"/>
      <point x="112" y="481" type="line"/>
      <point x="73" y="436"/>
      <point x="55" y="387"/>
      <point x="55" y="332" type="curve" smooth="yes"/>
      <point x="55" y="71" type="line" smooth="yes"/>
      <point x="55" y="11"/>
      <point x="78" y="0"/>
    </contour>
  </outline>
</glyph>
<glyph name="wideresh-hb" format="2">
  <advance width="784"/>
  <unicode hex="FB27"/>
  <note>
reshwide
</note>
  <outline>
    <contour>
      <point x="650" y="-7" type="line"/>
      <point x="665" y="-7" type="line"/>
      <point x="688" y="3"/>
      <point x="704" y="14"/>
      <point x="719" y="29" type="curve"/>
      <point x="706" y="454" type="line" smooth="yes"/>
      <point x="703" y="561"/>
      <point x="651" y="592"/>
      <point x="581" y="592" type="curve" smooth="yes"/>
      <point x="104" y="592" type="line" smooth="yes"/>
      <point x="78" y="592"/>
      <point x="53" y="610"/>
      <point x="53" y="642" type="curve" smooth="yes"/>
      <point x="53" y="647" type="line"/>
      <point x="26" y="647" type="line"/>
      <point x="15" y="591"/>
      <point x="12" y="577"/>
      <point x="12" y="555" type="curve" smooth="yes"/>
      <point x="12" y="502"/>
      <point x="29" y="483"/>
      <point x="61" y="483" type="curve" smooth="yes"/>
      <point x="580" y="483" type="line" smooth="yes"/>
      <point x="638" y="483"/>
      <point x="650" y="453"/>
      <point x="650" y="417" type="curve" smooth="yes"/>
    </contour>
  </outline>
</glyph>
<glyph name="widetav-hb" format="2">
  <advance width="906"/>
  <unicode hex="FB28"/>
  <note>
tavwide
</note>
  <outline>
    <contour>
      <point x="772" y="-7" type="line"/>
      <point x="787" y="-7" type="line"/>
      <point x="810" y="3"/>
      <point x="826" y="14"/>
      <point x="841" y="29" type="curve"/>
      <point x="828" y="454" type="line" smooth="yes"/>
      <point x="825" y="561"/>
      <point x="773" y="592"/>
      <point x="703" y="592" type="curve" smooth="yes"/>
      <point x="164" y="592" type="line" smooth="yes"/>
      <point x="137" y="592"/>
      <point x="113" y="611"/>
      <point x="113" y="645" type="curve" smooth="yes"/>
      <point x="113" y="647" type="line"/>
      <point x="86" y="647" type="line"/>
      <point x="75" y="591"/>
      <point x="72" y="577"/>
      <point x="72" y="555" type="curve" smooth="yes"/>
      <point x="72" y="502"/>
      <point x="89" y="483"/>
      <point x="121" y="483" type="curve" smooth="yes"/>
      <point x="702" y="483" type="line" smooth="yes"/>
      <point x="760" y="483"/>
      <point x="772" y="454"/>
      <point x="772" y="417" type="curve" smooth="yes"/>
    </contour>
    <contour>
      <point x="25" y="0" type="line"/>
      <point x="187" y="0" type="line"/>
      <point x="194" y="18"/>
      <point x="198" y="32"/>
      <point x="198" y="55" type="curve" smooth="yes"/>
      <point x="198" y="113"/>
      <point x="171" y="231"/>
      <point x="171" y="303" type="curve" smooth="yes"/>
      <point x="171" y="368"/>
      <point x="193" y="462"/>
      <point x="196" y="483" type="curve"/>
      <point x="196" y="508" type="line"/>
      <point x="157" y="508" type="line"/>
      <point x="157" y="481" type="line"/>
      <point x="128" y="386"/>
      <point x="114" y="329"/>
      <point x="117" y="268" type="curve" smooth="yes"/>
      <point x="123" y="141" type="line" smooth="yes"/>
      <point x="124" y="116"/>
      <point x="116" y="109"/>
      <point x="89" y="109" type="curve" smooth="yes"/>
      <point x="34" y="109" type="line"/>
    </contour>
  </outline>
</glyph>
<glyph name="alternativeplus-hb" format="2">
  <advance width="559"/>
  <unicode hex="FB29"/>
  <note>
alt_plussign
</note>
  <outline>
    <contour>
      <point x="65" y="328" type="line"/>
      <point x="494" y="328" type="line"/>
      <point x="494" y="387" type="line"/>
      <point x="309" y="387" type="line"/>
      <point x="309" y="572" type="line"/>
      <point x="249" y="572" type="line"/>
      <point x="249" y="387" type="line"/>
      <point x="65" y="387" type="line"/>
    </contour>
  </outline>
</glyph>
<glyph name="aleflamed-hb" format="2">
  <advance width="572"/>
  <unicode hex="FB4F"/>
  <note>
aleflamed
</note>
  <anchor x="274" y="0" name="caret_1"/>
  <outline>
    <contour>
      <point x="470" y="-10" type="curve"/>
      <point x="484" y="-10" type="line"/>
      <point x="500" y="4"/>
      <point x="519" y="21"/>
      <point x="519" y="64" type="curve" smooth="yes"/>
      <point x="519" y="90"/>
      <point x="512" y="116"/>
      <point x="485" y="147" type="curve" smooth="yes"/>
      <point x="128" y="554" type="line" smooth="yes"/>
      <point x="87" y="600"/>
      <point x="91" y="622"/>
      <point x="96" y="643" type="curve" smooth="yes"/>
      <point x="126" y="758" type="line" smooth="yes"/>
      <point x="140" y="810"/>
      <point x="131" y="830"/>
      <point x="105" y="834" type="curve" smooth="yes"/>
      <point x="70" y="839" type="line" smooth="yes"/>
      <point x="57" y="841"/>
      <point x="48" y="849"/>
      <point x="48" y="869" type="curve" smooth="yes"/>
      <point x="48" y="873" type="line"/>
      <point x="28" y="873" type="line"/>
      <point x="24" y="862"/>
      <point x="12" y="828"/>
      <point x="12" y="810" type="curve" smooth="yes"/>
      <point x="12" y="790"/>
      <point x="14" y="772"/>
      <point x="40" y="769" type="curve" smooth="yes"/>
      <point x="70" y="765" type="line" smooth="yes"/>
      <point x="82" y="763"/>
      <point x="86" y="757"/>
      <point x="82" y="743" type="curve" smooth="yes"/>
      <point x="71" y="706"/>
      <point x="35" y="592"/>
      <point x="35" y="548" type="curve" smooth="yes"/>
      <point x="35" y="535"/>
      <point x="35" y="506"/>
      <point x="69" y="467" type="curve" smooth="yes"/>
      <point x="433" y="52" type="line" smooth="yes"/>
      <point x="459" y="22"/>
      <point x="468" y="7"/>
    </contour>
    <contour>
      <point x="381" y="261" type="line"/>
      <point x="381" y="301"/>
      <point x="388" y="341"/>
      <point x="411" y="385" type="curve" smooth="yes"/>
      <point x="466" y="488" type="line"/>
      <point x="426" y="500" type="line"/>
      <point x="367" y="391" type="line" smooth="yes"/>
      <point x="354" y="366"/>
      <point x="338" y="327"/>
      <point x="338" y="306" type="curve"/>
    </contour>
    <contour>
      <point x="524" y="468" type="line"/>
      <point x="530" y="504"/>
      <point x="532" y="516"/>
      <point x="532" y="530" type="curve" smooth="yes"/>
      <point x="532" y="563"/>
      <point x="520" y="580"/>
      <point x="493" y="584" type="curve" smooth="yes"/>
      <point x="438" y="593" type="line" smooth="yes"/>
      <point x="411" y="597"/>
      <point x="396" y="610"/>
      <point x="396" y="641" type="curve" smooth="yes"/>
      <point x="396" y="647" type="line"/>
      <point x="369" y="647" type="line"/>
      <point x="352" y="608"/>
      <point x="345" y="576"/>
      <point x="345" y="553" type="curve" smooth="yes"/>
      <point x="345" y="503"/>
      <point x="362" y="494"/>
      <point x="395" y="489" type="curve" smooth="yes"/>
    </contour>
  </outline>
</glyph>
<glyph name="hatafqamats_zerowidthjoiner_siluqleft-hb" format="2">
  <anchor x="226" y="0" name="_bottom"/>
  <outline>
    <contour>
      <point x="101" y="-260" type="line"/>
      <point x="155" y="-260" type="line"/>
      <point x="149" y="-139" type="line"/>
      <point x="205" y="-139" type="line"/>
      <point x="208" y="-86" type="line"/>
      <point x="50" y="-86" type="line"/>
      <point x="47" y="-139" type="line"/>
      <point x="108" y="-139" type="line"/>
    </contour>
    <contour>
      <point x="242" y="-276" type="line"/>
      <point x="295" y="-273" type="line"/>
      <point x="295" y="-70" type="line"/>
      <point x="242" y="-73" type="line"/>
    </contour>
    <contour>
      <point x="368" y="-276" type="curve" smooth="yes"/>
      <point x="390" y="-276"/>
      <point x="406" y="-262"/>
      <point x="406" y="-233" type="curve" smooth="yes"/>
      <point x="406" y="-204"/>
      <point x="390" y="-191"/>
      <point x="368" y="-191" type="curve" smooth="yes"/>
      <point x="345" y="-191"/>
      <point x="329" y="-204"/>
      <point x="329" y="-233" type="curve" smooth="yes"/>
      <point x="329" y="-263"/>
      <point x="345" y="-276"/>
    </contour>
    <contour>
      <point x="366" y="-155" type="curve" smooth="yes"/>
      <point x="389" y="-155"/>
      <point x="405" y="-141"/>
      <point x="405" y="-112" type="curve" smooth="yes"/>
      <point x="405" y="-84"/>
      <point x="389" y="-70"/>
      <point x="366" y="-70" type="curve" smooth="yes"/>
      <point x="344" y="-70"/>
      <point x="329" y="-84"/>
      <point x="329" y="-112" type="curve" smooth="yes"/>
      <point x="329" y="-142"/>
      <point x="344" y="-155"/>
    </contour>
  </outline>
</glyph>
<glyph name="hatafsegol_zerowidthjoiner_siluqleft-hb" format="2">
  <anchor x="232" y="0" name="_bottom"/>
  <outline>
    <contour>
      <point x="274" y="-276" type="line"/>
      <point x="327" y="-273" type="line"/>
      <point x="327" y="-70" type="line"/>
      <point x="274" y="-73" type="line"/>
    </contour>
    <contour>
      <point x="133" y="-276" type="curve" smooth="yes"/>
      <point x="155" y="-276"/>
      <point x="171" y="-262"/>
      <point x="171" y="-233" type="curve" smooth="yes"/>
      <point x="171" y="-204"/>
      <point x="155" y="-191"/>
      <point x="133" y="-191" type="curve" smooth="yes"/>
      <point x="110" y="-191"/>
      <point x="94" y="-204"/>
      <point x="94" y="-233" type="curve"/>
      <point x="94" y="-263"/>
      <point x="110" y="-276"/>
    </contour>
    <contour>
      <point x="64" y="-155" type="curve" smooth="yes"/>
      <point x="86" y="-155"/>
      <point x="102" y="-141"/>
      <point x="102" y="-112" type="curve" smooth="yes"/>
      <point x="102" y="-84"/>
      <point x="86" y="-70"/>
      <point x="64" y="-70" type="curve" smooth="yes"/>
      <point x="41" y="-70"/>
      <point x="26" y="-84"/>
      <point x="26" y="-112" type="curve"/>
      <point x="26" y="-142"/>
      <point x="41" y="-155"/>
    </contour>
    <contour>
      <point x="201" y="-155" type="curve" smooth="yes"/>
      <point x="224" y="-155"/>
      <point x="240" y="-141"/>
      <point x="240" y="-112" type="curve" smooth="yes"/>
      <point x="240" y="-84"/>
      <point x="224" y="-70"/>
      <point x="201" y="-70" type="curve" smooth="yes"/>
      <point x="179" y="-70"/>
      <point x="164" y="-84"/>
      <point x="164" y="-112" type="curve"/>
      <point x="164" y="-142"/>
      <point x="179" y="-155"/>
    </contour>
    <contour>
      <point x="399" y="-276" type="curve" smooth="yes"/>
      <point x="422" y="-276"/>
      <point x="438" y="-262"/>
      <point x="438" y="-233" type="curve" smooth="yes"/>
      <point x="438" y="-204"/>
      <point x="422" y="-191"/>
      <point x="399" y="-191" type="curve" smooth="yes"/>
      <point x="377" y="-191"/>
      <point x="361" y="-204"/>
      <point x="361" y="-233" type="curve"/>
      <point x="361" y="-263"/>
      <point x="377" y="-276"/>
    </contour>
    <contour>
      <point x="398" y="-155" type="curve" smooth="yes"/>
      <point x="421" y="-155"/>
      <point x="437" y="-141"/>
      <point x="437" y="-112" type="curve" smooth="yes"/>
      <point x="437" y="-84"/>
      <point x="421" y="-70"/>
      <point x="398" y="-70" type="curve" smooth="yes"/>
      <point x="376" y="-70"/>
      <point x="361" y="-84"/>
      <point x="361" y="-112" type="curve"/>
      <point x="361" y="-142"/>
      <point x="376" y="-155"/>
    </contour>
  </outline>
</glyph>
